<?xml version="1.0" standalone="no"?>
<!DOCTYPE svg PUBLIC "-//W3C//DTD SVG 1.1//EN" "http://www.w3.org/Graphics/SVG/1.1/DTD/svg11.dtd" >
<!--
2013-9-30: Created.
-->
<svg>
<metadata>
Created by iconfont
</metadata>
<defs>

<font id="iconfont" horiz-adv-x="1024" >
  <font-face
    font-family="iconfont"
    font-weight="500"
    font-stretch="normal"
    units-per-em="1024"
    ascent="896"
    descent="-128"
  />
    <missing-glyph />
    
    <glyph glyph-name="anonymous-iconfont" unicode="&#59087;" d="M512-212C229.239467-212 0 17.239467 0 300 0 582.760533 229.239467 812 512 812 794.760533 812 1024 582.760533 1024 300 1024 17.239467 794.760533-212 512-212ZM477.832533 449.4016 448.136533 504.5952C357.717333 462.474667 272.930133 362.2592 272.930133 232.996267 272.930133 153.090133 322.389333 94.9952 383.146667 94.9952 446.737067 94.9952 479.232 144.386133 479.232 189.408 479.232 241.700267 443.904 282.353067 391.611733 282.353067 376.081067 282.353067 360.5504 278.018133 352.0512 270.747733 352.0512 334.645333 401.5104 410.1824 477.832533 449.4016ZM749.124267 449.4016 719.4624 504.5952C629.009067 462.474667 542.8224 362.2592 542.8224 232.996267 542.8224 153.090133 593.681067 94.9952 654.4384 94.9952 718.0288 94.9952 750.557867 144.386133 750.557867 189.408 750.557867 241.700267 715.229867 282.353067 661.504 282.353067 645.973333 282.353067 631.842133 278.018133 623.377067 270.747733 623.377067 334.645333 672.836267 410.1824 749.124267 449.4016Z"  horiz-adv-x="1024" />

    
    <glyph glyph-name="excel" unicode="&#58889;" d="M728.345 831.777H224.056V574.66h68.687V762.981h378.844v-187.78h186.917v-569.777H292.743v84.271h-0.715v68.796h0.715v53.046h-68.687v-274.909h703.135V639.514zM660.276 477.597h129.217v-67.077H660.276zM660.276 317.614h129.217v-67.077H660.276zM660.276 157.631h129.217v-67.077H660.276zM586.15 487.216h-68.687v-328.725H292.028v-68.796H586.15zM460.55 211.537V574.66H98.004v-363.123H460.55z m-234.043 70.305l-85.787-0.722 93.843 110.912-93.843 113.045 81.805-0.225 53.747-63.523 53.747 63.523 81.805 0.225-93.843-113.044 93.843-110.912-85.787 0.722-49.765 59.948-49.765-59.949zM326.038 281.842l85.787-0.722-93.843 110.913 93.843 113.044-81.805-0.225-53.747-63.524-53.748 63.524-81.805 0.225 93.844-113.044L140.72 281.12l85.787 0.722 49.766 59.948z"  horiz-adv-x="1024" />

    
    <glyph glyph-name="right" unicode="&#58897;" d="M647.763 405.018c12.499 12.499 32.755 12.499 45.253 0v0c12.499-12.499 12.499-32.755 0-45.253l-316.781-316.781c-12.499-12.499-32.755-12.499-45.253 0v0c-12.499 12.499-12.499 32.755 0 45.253l316.781 316.781zM330.982 679.763c-12.499 12.499-12.499 32.755 0 45.253v0c12.499 12.499 32.755 12.499 45.253 0l316.781-316.781c12.499-12.499 12.499-32.755 0-45.253v0c-12.499-12.499-32.755-12.499-45.253 0l-316.781 316.781z"  horiz-adv-x="1024" />

    
    <glyph glyph-name="fujian" unicode="&#58955;" d="M447.53134766 136.38134765999996c-39.82324219-55.35527344-117.66533203-69.18310547-173.87314453-30.91464844-56.20869141 38.26933594-69.48193359 114.17255859-29.65957032 169.51025391 2.56201172 3.50595703 3.87861328 5.39912109 6.0178711 8.36103515L586.49873047 751.0083984400001c2.10498047 2.95839844 4.84628906 5.18291016 7.69130859 7.171875C663.47070313 836.59189453 782.4078125 854.01269531 870.27910156 794.17675781c87.87480469-59.8359375 111.78105469-174.52617187 59.75419922-264.67207031-0.93691406-3.29326172-2.17441406-6.553125-4.27939453-9.51240234L601.27841797 69.03955078000001c-2.14013672-2.97597656-4.83398438-6.71308594-6.02050781-8.35839844-92.92236328-129.13505859-274.55361328-161.43574219-405.72773438-72.12480468C58.38945312 77.86728516000005 27.3921875 254.95107422 120.31542969 384.08701172c2.69121094 3.9375 3.87773438 5.39912109 5.98447265 8.35839844L402.72646484 776.58984375c9.96503906 13.84365234 29.42402344 17.30478516 43.46894532 7.74052734 14.04228516-9.57919922 17.38652344-28.55566406 7.42412109-42.38261718L177.19296875 357.7875c-2.10673828-2.95927734-4.55273438-6.40283203-5.98535156-8.34257813-73.0265625-101.48466797-48.65185547-240.61552734 54.36826172-310.78300781 103.05439453-70.16923828 245.7984375-44.80488281 318.79072265 56.67363282 2.37392578 3.16933594 3.88037109 5.38505859 6.02050781 8.34345703l318.45673829 442.60927734c46.47832031 64.58554688 30.96474609 153.12744141-34.60605469 197.78291016C768.66699219 788.70996094 677.85048828 772.57587891 631.37392578 708.00878906l-330.49511719-459.32871094c-2.10673828-2.95839844-4.72939453-6.51181641-5.98535156-8.34345703-19.92832031-27.66972656-13.275-65.61914063 14.81308594-84.75996093 28.11972656-19.14345703 67.04121094-12.22207031 86.93613281 15.46347656m-0.00263672-0.00263672l243.45791016 338.33496094c9.96503906 13.84365234 29.42490234 17.30478516 43.46894531 7.72382812 14.04228516-9.5625 17.38652344-28.53808594 7.42236328-42.36503906L447.53134766 136.37958984z"  horiz-adv-x="1024" />

    
    <glyph glyph-name="xinzeng" unicode="&#58958;" d="M447.68603516 450.86542969H129.91835938c-35.44628906 0-64.08896484-28.50732422-64.08896485-63.64335938 0-35.38828125 28.63828125-63.63896484 64.08984375-63.63896484H447.69042969V5.815429689999974c0-35.45068359 28.51171875-64.08896484 63.64335937-64.08896485 35.38388672 0 63.63457031 28.63828125 63.63457031 64.08984375V323.58222656h317.76767579c35.45068359 0 64.08896484 28.51171875 64.08896484 63.63896485 0 35.38300781-28.63828125 63.64335938-64.08896484 63.64335937H574.96835938V768.6375c0 35.44628906-28.51171875 64.08896484-63.63457032 64.08896484-35.38740234 0-63.64335938-28.63828125-63.64335937-64.08896484v-317.77207031z"  horiz-adv-x="1024" />

    
    <glyph glyph-name="xialafuben" unicode="&#58934;" d="M827.933 601.17c-13.136 13.136-32.962 13.136-46.098 0L526.778 346.112 271.599 601.17c-13.136 13.136-32.962 13.136-46.098 0-13.136-13.136-13.136-32.962 0-46.098l276.465-276.464c7.054-7.055 15.933-10.339 24.812-9.852 8.757-0.487 17.758 2.797 24.812 9.852l276.465 276.464c13.014 13.258 13.014 32.962-0.122 46.098z"  horiz-adv-x="1024" />

    
    <glyph glyph-name="piliangxinzen" unicode="&#58980;" d="M619.789474 599.578947c188.631579 0 339.536842-150.905263 339.536842-339.536842s-150.905263-339.536842-339.536842-339.536842-339.536842 150.905263-339.536842 339.536842 156.294737 339.536842 339.536842 339.536842z m0 48.505264c-102.4 0-199.410526-43.115789-274.863158-113.178948s-113.178947-172.463158-113.178948-274.863158 43.115789-199.410526 113.178948-274.863158c75.452632-75.452632 172.463158-113.178947 274.863158-113.178947s199.410526 43.115789 274.863158 113.178947c75.452632 75.452632 113.178947 172.463158 113.178947 274.863158S970.105263 464.842105 894.652632 534.905263s-167.073684 113.178947-274.863158 113.178948zM48.505263 491.789474C48.505263 680.421053 199.410526 831.326316 388.042105 831.326316c80.842105 0 156.294737-32.336842 215.578948-80.842105l59.28421 16.168421C587.452632 842.105263 490.442105 879.831579 388.042105 879.831579s-210.189474-43.115789-274.863158-107.789474S0 653.473684 0 491.789474s113.178947-280.252632 113.178947-274.863158c5.389474 16.168421 0 0 16.168421 53.894737C80.842105 330.105263 48.505263 410.947368 48.505263 491.789474zM194.021053 540.294737c-5.389474 0-10.778947 5.389474-21.557895 5.389474-26.947368 0-53.894737-21.557895-53.894737-53.894737 0-21.557895 10.778947-37.726316 26.947368-43.11579 5.389474-5.389474 16.168421-5.389474 21.557895-5.389473 26.947368 0 53.894737 21.557895 53.894737 53.894736 5.389474 16.168421-10.778947 37.726316-26.947368 43.11579zM510.490947 283.109053h231.747369c16.168421 0 26.947368-10.778947 26.947368-26.947369s-10.778947-26.947368-26.947368-26.947368h-231.747369c-16.168421 0-26.947368 10.778947-26.947368 26.947368s10.778947 26.947368 26.947368 26.947369zM623.669895 396.288c16.168421 0 26.947368-10.778947 26.947368-26.947368v-226.357895c0-16.168421-10.778947-26.947368-26.947368-26.947369s-26.947368 10.778947-26.947369 26.947369v226.357895c0 16.168421 10.778947 26.947368 26.947369 26.947368z"  horiz-adv-x="1024" />

    
    <glyph glyph-name="chuangjian" unicode="&#59020;" d="M512 832c248.896 0 448-199.104 448-448s-199.104-448-448-448S64 135.104 64 384 270.208 832 512 832z m0 64C376.896 896 248.896 839.104 149.344 746.656 49.792 654.208 0 519.136 0 384c0-135.104 56.896-263.104 149.344-362.656C248.864-78.208 376.864-128 512-128c135.104 0 263.104 56.896 362.656 149.344C974.208 120.864 1024 248.864 1024 384c0 135.104-49.792 270.208-149.344 362.656C775.136 839.136 654.208 896 512 896zM353.216 416h285.568c19.936 0 33.216-12.8 33.216-32s-13.28-32-33.216-32h-285.568C333.28 352 320 364.8 320 384s13.28 32 33.216 32zM512 576c19.2 0 32-13.536 32-33.856v-284.288c0-20.32-12.8-33.856-32-33.856s-32 13.536-32 33.856v284.288c0 20.32 12.8 33.856 32 33.856z"  horiz-adv-x="1024" />

    
    <glyph glyph-name="jizhang" unicode="&#59017;" d="M936.543523 870.425089c30.689893-30.689893 30.689893-30.689893 56.264804-51.149822 25.574911-25.574911 51.149822-92.06968 0-143.219502-51.149822-51.149822-670.062669-675.177651-670.062668-675.17765S36.306655-116.766476 26.076691-126.99644c-15.344947-5.114982-25.574911 10.229964-20.459929 25.574911 5.114982 15.344947 122.759573 286.439003 122.759573 286.439003S757.519146 824.390249 798.439003 865.310107c40.919858 40.919858 107.414626 35.804875 138.10452 5.114982zM46.53662-80.961601l235.289181 102.299644-138.10452 132.989538-97.184661-235.289182zM164.18121 179.902492l148.334484-148.334484 496.153274 501.268256-148.334484 143.219501L164.18121 179.902492zM680.794413 701.630676l148.334484-143.219501 66.494768 66.494768-148.334484 143.219502-66.494768-66.494769zM767.74911 793.700356l153.449466-148.334484 56.264804 56.264804c20.459929 20.459929 25.574911 66.494769-5.114982 92.06968l-51.149822 51.149822c-25.574911 25.574911-71.609751 25.574911-92.069679 0-25.574911-20.459929-61.379786-51.149822-61.379787-51.149822z"  horiz-adv-x="1024" />

    
    <glyph glyph-name="daikai" unicode="&#59018;" d="M532.48 588.8H163.84c-10.24 0-20.48-10.24-20.48-25.6s10.24-25.6 20.48-25.6h368.64c10.24 0 20.48 10.24 20.48 25.6S542.72 588.8 532.48 588.8zM691.2 588.8h-66.56c-10.24 0-20.48-10.24-20.48-25.6s10.24-25.6 20.48-25.6h66.56c10.24 0 20.48 10.24 20.48 25.6s-10.24 25.6-20.48 25.6zM128 727.04C87.04 727.04 51.2 691.2 51.2 650.24v-701.44c0-40.96 35.84-76.8 76.8-76.8h593.92c40.96 0 76.8 35.84 76.8 76.8V650.24c0 40.96-35.84 76.8-76.8 76.8H128z m599.04-814.08H128c-20.48 0-35.84 15.36-35.84 35.84V419.84h665.6v-465.92c5.12-20.48-10.24-40.96-30.72-40.96z m35.84 737.28v-189.44H97.28V650.24c0 20.48 15.36 35.84 35.84 35.84h593.92c20.48 0 35.84-15.36 35.84-35.84zM865.28 81.92h-20.48v-40.96h20.48c46.08 0 81.92 35.84 81.92 81.92V814.08c0 46.08-35.84 81.92-81.92 81.92H271.36c-46.08 0-81.92-35.84-81.92-81.92v-51.2h40.96v51.2c0 20.48 15.36 35.84 35.84 35.84h593.92c20.48 0 35.84-15.36 35.84-35.84v-696.32c5.12-20.48-10.24-35.84-30.72-35.84z"  horiz-adv-x="1024" />

    
    <glyph glyph-name="baoshui" unicode="&#59019;" d="M776.586335 773.88323c10.176398-10.176398 10.176398-20.352795 10.176398-30.529193v-361.262112h45.793789V743.354037c0 25.440994-10.176398 45.793789-25.440994 61.058385-15.264596 15.264596-35.617391 25.440994-61.058385 25.440994h-86.499379v-40.70559h86.499379c10.176398 0 20.352795-5.088199 30.529192-15.264596zM359.354037 829.853416h172.998758v-40.70559H359.354037v40.70559zM110.032298-60.581366c-10.176398 10.176398-10.176398 20.352795-10.176397 30.529192V743.354037c0 25.440994 20.352795 40.70559 40.70559 40.70559h86.499379v45.793789H140.561491c-25.440994 0-45.793789-10.176398-61.058385-25.440994-15.264596-15.264596-25.440994-35.617391-25.440994-61.058385v-778.49441c0-20.352795 10.176398-45.793789 25.440994-61.058385 15.264596-15.264596 40.70559-25.440994 61.058385-25.440994h325.64472v40.705591H140.561491c-10.176398 5.088199-20.352795 10.176398-30.529193 20.352795zM293.207453 723.001242c10.176398 0 20.352795 10.176398 20.352795 20.352795V875.647205c0 10.176398-10.176398 20.352795-20.352795 20.352795-15.264596 0-20.352795-10.176398-20.352795-20.352795V743.354037c0-10.176398 5.088199-20.352795 20.352795-20.352795z m300.203727 0c10.176398 0 20.352795 10.176398 20.352795 20.352795V875.647205c0 10.176398-10.176398 20.352795-20.352795 20.352795s-20.352795-10.176398-20.352795-20.352795V743.354037c0-10.176398 10.176398-20.352795 20.352795-20.352795zM725.704348 550.002484c0 10.176398-10.176398 20.352795-20.352795 20.352796H186.35528c-10.176398 0-20.352795-10.176398-20.352796-20.352796s10.176398-20.352795 20.352796-20.352795h518.996273c10.176398 0 20.352795 10.176398 20.352795 20.352795z m-172.998758-172.998757c0 10.176398-10.176398 20.352795-20.352795 20.352795H186.35528c-10.176398 0-20.352795-10.176398-20.352796-20.352795s10.176398-20.352795 20.352796-20.352795h345.997515c10.176398 0 20.352795 10.176398 20.352795 20.352795z m-366.35031-152.645963c-10.176398 0-20.352795-10.176398-20.352796-20.352795s10.176398-20.352795 20.352796-20.352795H359.354037c10.176398 0 20.352795 10.176398 20.352795 20.352795s-10.176398 20.352795-20.352795 20.352795H186.35528zM919.055901 76.8l-167.910559 167.910559c-10.176398 10.176398-30.529193 10.176398-40.70559 0l-167.910559-167.910559c-5.088199-5.088199-5.088199-10.176398 0-10.176398 5.088199-5.088199 5.088199-5.088199 10.176397 0l25.440994 25.440994v-167.910559c0-15.264596 15.264596-30.529193 30.529192-30.529192h249.32174c15.264596 0 30.529193 15.264596 30.529192 30.529192v167.910559l25.440994-25.440994c5.088199-5.088199 5.088199-5.088199 10.176397 0-5.088199 0-5.088199 5.088199-5.088198 10.176398z m-50.881988-157.734161c0-10.176398-5.088199-15.264596-15.264596-15.264597h-249.321739c-10.176398 0-15.264596 5.088199-15.264597 15.264597v183.175155l127.204969 127.204969c5.088199 5.088199 15.264596 5.088199 20.352795 0l132.293168-127.204969v-183.175155zM929.232298 86.976398l-76.322981 71.234782-91.587578 91.587578c-5.088199 5.088199-10.176398 10.176398-20.352795 15.264596-15.264596 5.088199-30.529193 0-45.793789-10.176397l-30.529192-30.529193-106.852174-106.852174-30.529193-30.529192s-5.088199-5.088199-5.088198-10.176398c-5.088199-15.264596 5.088199-30.529193 20.352795-30.529193 10.176398 0 25.440994 15.264596 30.529192 20.352795l10.176398 10.176398c-10.176398 5.088199-15.264596 5.088199-25.440994 10.176398v-167.910559c0-15.264596 5.088199-30.529193 20.352795-40.705591 15.264596-10.176398 35.617391-5.088199 50.881987-5.088198h223.880746c20.352795 0 35.617391 10.176398 40.70559 30.529192v183.175156c-10.176398-5.088199-15.264596-5.088199-25.440994-10.176398l20.352795-20.352795c5.088199-5.088199 15.264596-10.176398 25.440994-5.088199 25.440994 5.088199 25.440994 25.440994 15.264596 35.617392-10.176398 5.088199-20.352795 5.088199-20.352795-5.088199-5.088199-5.088199 0-15.264596 5.088199-20.352795-5.088199 5.088199-5.088199 10.176398 0 15.264596 20.352795 5.088199 5.088199-5.088199 5.088199 0l-10.176398 10.176398-15.264596 15.264596c-10.176398 10.176398-25.440994 0-25.440994-10.176398V-75.845963s0-5.088199-5.088199-10.176397-5.088199-5.088199-10.176397-5.088199h-254.409938c-10.176398 0-15.264596 5.088199-15.264596 15.264596v167.910559c0 10.176398-15.264596 20.352795-25.440994 10.176398l-20.352795-20.352795s-5.088199 0-5.088199-5.088199c0 5.088199 10.176398 0 10.176398 0s5.088199-10.176398 0-10.176398l30.529192 30.529193 101.763975 101.763975 30.529193 30.529193c5.088199 5.088199 10.176398 5.088199 15.264596 5.088198 5.088199 0 5.088199 0 10.176398-5.088198 30.529193-25.440994 55.970186-55.970186 86.499378-81.41118 25.440994-25.440994 55.970186-50.881988 81.411181-81.411181 25.440994-15.264596 40.70559 5.088199 30.529192 20.352796zM857.997516-75.845963c0-5.088199 0 0 0 0s-5.088199 0 0 0h-254.409938v76.322982 101.763975c0-5.088199-5.088199-5.088199-5.088199-10.176398 40.70559 35.617391 76.322981 76.322981 117.028571 111.940373l15.264597 15.264596 5.088198-5.088199 66.146584-66.146583c20.352795-15.264596 35.617391-35.617391 55.970187-50.881988 0 5.088199-5.088199 5.088199-5.088199 10.176398v-157.734162c5.088199-10.176398 5.088199-20.352795 5.088199-25.440994l15.264596 15.264597c-15.264596 0-15.264596-25.440994 0-25.440994 5.088199 0 15.264596 5.088199 15.264596 15.264596v167.910559 15.264596c0 5.088199-5.088199 10.176398-5.088199 15.264597l-91.587577 86.499378-35.617392 35.617392c-10.176398 10.176398-20.352795 15.264596-30.529192 10.176397-5.088199 0-10.176398-5.088199-15.264596-10.176397l-91.587578-91.587578-30.529193-30.529192c-5.088199-10.176398-5.088199-20.352795-5.088198-30.529193v-137.381366c0-15.264596-5.088199-35.617391 5.088198-45.793789 10.176398-10.176398 25.440994-10.176398 40.70559-10.176398h234.057143c15.264596 0 30.529193 10.176398 30.529193 30.529193 0 5.088199-5.088199 15.264596-15.264596 15.264596-15.264596-15.264596-20.352795-20.352795-20.352795-25.440994z"  horiz-adv-x="1024" />

    
    <glyph glyph-name="kefu" unicode="&#59032;" d="M113.29997891 340.95020508000005v-98.8124581c0-40.87498271 34.49998565-73.98746895 76.98746777-73.98746983 42.52498242 0 76.98746777 33.11248623 76.98746777 73.98746983v98.8124581c0 40.87498271-34.49998565 73.98746895-76.98746777 73.98746982-42.52498242 0-76.98746777-33.14998653-76.98746777-73.98746982z m707.47470527-188.4749212a120.5999499 120.5999499 0 0 0-40.34998389 89.6249628v98.8499584c0.03750029 67.72497187 56.92497627 122.69994873 127.38744756 123.18744902C894.64965312 643.27507969 739.24971787 784.6875208 549.49979727 784.6875208S204.34994053 643.27507969 191.1874458 464.13765411c70.46247041-0.52499971 127.31244698-55.49997656 127.38744756-123.18744903v-98.8124581c0-68.09997129-57.44997598-123.29994902-128.24994727-123.29994903C119.41247568 118.83779794999998 62 174.00027538999996 62 242.13774696999997v98.81245811c0 49.12497949 30.3749877 93.48746133 77.24996807 113.02495312C147.16246484 665.13757031 327.76238955 834 549.49979727 834s402.29983213-168.86242969 410.24982831-380.0248418c46.87498037-19.5374918 77.21246778-63.93747305 77.24996807-113.02495312v-98.81245811c0-40.08748359-20.28749151-77.62496748-54.37497744-100.68745869a132.67494492 132.67494492 0 0 0-116.92495108-15.37499356 438.8248169 438.8248169 0 0 0-175.12492675-107.99995517c-1.23749912-46.87498037-41.24998301-84.22496455-89.99996309-84.07496426h-76.49996748c-49.7999795 0-90.07496279 38.47498418-90.07496279 86.28746396 0 47.77498037 40.12498301 86.32496425 90.07496279 86.32496427h76.46246807c32.39998682 0 60.74997451-16.27499355 76.61246748-40.79998302a387.52483886 387.52483886 0 0 1 143.62494082 86.62496309z m10.94999502 188.4749212v-98.81245811c0-40.87498271 34.49998565-73.98746895 76.98746778-73.98746982 42.52498242 0 76.98746777 33.11248623 76.98746776 73.98746982v98.81245811c0 40.87498271-34.49998565 73.98746895-76.98746776 73.98746982-42.52498242 0-76.98746777-33.14998653-76.98746778-73.98746982z m-307.61237198-357.63735059h76.46246807c21.59999122 0 38.73748359 16.49999356 38.73748448 36.97498477 0 20.5499918-17.24999238 37.01248417-38.73748448 37.01248418h-76.49996748c-21.56249092 0-38.73748359-16.49999356-38.73748447-37.01248418 0-20.51249151 17.24999238-36.97498477 38.77498388-36.97498476z"  horiz-adv-x="1109" />

    
    <glyph glyph-name="right-copy" unicode="&#59097;" d="M376.237 362.98199999999997c-12.499-12.499-32.755-12.499-45.253 0v0c-12.499 12.499-12.499 32.755 0 45.253l316.781 316.781c12.499 12.499 32.755 12.499 45.253 0v0c12.499-12.499 12.499-32.755 0-45.253l-316.781-316.781zM693.018 88.23699999999997c12.499-12.499 12.499-32.755 0-45.253v0c-12.499-12.499-32.755-12.499-45.253 0l-316.781 316.781c-12.499 12.499-12.499 32.755 0 45.253v0c12.499 12.499 32.755 12.499 45.253 0l316.781-316.781z"  horiz-adv-x="1024" />

    
    <glyph glyph-name="yuandian" unicode="&#58910;" d="M512.73644845 221.24489499000003c-89.55213018 0-162.01865657 72.4665264-162.01865659 162.01865656s72.4665264 162.01865657 162.01865659 162.01865659 162.01865657-72.4665264 162.01865656-162.01865659-72.4665264-162.01865657-162.01865656-162.01865656z"  horiz-adv-x="1024" />

    
    <glyph glyph-name="shaixuan3" unicode="&#59016;" d="M383.32173184 2.8484856500000433v398.69122851L83.62832451 732.46243418A85.94810948 85.94810948 0 0 0 65.08873232 762.52177237 52.28884951 52.28884951 0 0 0 66.25870683 800.86092949 52.37884776 52.37884776 0 0 0 93.97809688 827.50034326 85.94810948 85.94810948 0 0 0 128.53733662 833.9802H895.41046602c13.22970908 0 24.83945333-2.15995253 34.55923887-6.47985674 12.86971699-5.57987695 22.49950518-14.84967305 27.71939091-26.63941377 5.21988487-11.69974248 5.57987695-25.01944981 1.16997363-38.33915712a85.94810948 85.94810948 0 0 0-18.44959394-29.96934083L640.71606904 401.44971592V161.69499112000005c0-45.2690042-26.36941992-101.24777286-61.37865-129.95714092l-93.59794072-77.12830372c-15.47965987-12.6897205-31.31931094-19.16957813-47.06896465-19.16957812-27.44939619 0-55.16878623 20.87954033-55.16878623 67.49851465z"  horiz-adv-x="1024" />

    
    <glyph glyph-name="daoru" unicode="&#59882;" d="M927.21552147 252.00487338999994c0 19.51293783 15.90728628 34.07694217 37.11700134 34.07694216 21.20971504 0 37.11700133-14.56400433 37.11700131-34.07694216v-194.77588313c0-53.51918095-47.72185885-97.42329108-106.04857521-97.42329109H193.85427437C135.59825706-40.194300829999975 87.80569917 3.639110260000052 87.80569917 57.228990260000046V252.00487338999994c0 19.51293783 15.90728628 34.07694217 31.81457256 34.07694216 21.20971504 0 37.11700133-14.56400433 37.11700132-34.07694216v-194.77588313c0-19.51293783 15.90728628-34.14764122 37.11700132-34.14764124h696.24424579c21.20971504 0 37.11700133 14.63470338 37.11700131 34.14764124V252.00487338999994zM738.94395095 485.9480303h-0.1413981c16.33148058 15.55379103 38.17748707 15.55379103 54.65036576-5.2317297 16.40217963-10.39276037 16.40217963-31.17828111 0-46.8027712l-218.67216209-207.85520743s-5.44382686-5.23172972-10.88765373-5.23172969c-16.47287869 0-32.87505831 0-49.27723794 15.62449008l-218.67216208 207.85520741c-16.40217963 10.46345942-16.40217963 31.24898016 0 46.80277119 11.02905183 15.62449008 32.87505831 15.62449008 49.27723796 0l158.57796945-150.73037489V771.78429002c0 20.78552075 16.40217963 36.41001083 38.24818614 36.41001081 21.91670555 0 38.31888518-15.55379103 38.31888517-36.41001081V335.21765541l158.57796946 150.80107394z"  horiz-adv-x="1075" />

    
    <glyph glyph-name="shuangjiantouxia" unicode="&#59156;" d="M792.5 449.4L512 168.9 231.5 449.4c-11.7 11.7-30.7 11.7-42.4 0s-11.7-30.7 0-42.4l301.8-301.7c5.9-5.9 13.5-8.8 21.2-8.8 7.7 0 15.4 2.9 21.2 8.8L835 407c11.7 11.7 11.7 30.7 0 42.4-11.8 11.7-30.8 11.7-42.5 0zM490.8 318.6c5.9-5.9 13.5-8.8 21.2-8.8 7.7 0 15.4 2.9 21.2 8.8L835 620.3c11.7 11.7 11.7 30.7 0 42.4s-30.7 11.7-42.4 0L512 382.2 231.5 662.7c-11.7 11.7-30.7 11.7-42.4 0s-11.7-30.7 0-42.4l301.7-301.7z"  horiz-adv-x="1024" />

    
    <glyph glyph-name="shanchu2" unicode="&#59913;" d="M512-66c-247.5 0-450 202.5-450 450s202.5 450 450 450 450-202.5 450-450-202.5-450-450-450zM512 777.75A391.30714248 391.30714248 0 0 1 118.25 384 391.30714248 391.30714248 0 0 1 512-9.75 391.30714248 391.30714248 0 0 1 905.75 384 391.30714248 391.30714248 0 0 1 512 777.75zM512 344.20714248L392.68571416 224.89285752c-11.95714248-11.89285752-27.83571416-11.89285752-39.79285664 0-11.89285752 11.95714248-11.89285752 27.83571416 0 39.79285664L472.20714248 384 352.89285752 503.31428584c-11.89285752 11.95714248-11.89285752 27.83571416 0 39.79285664 11.95714248 11.89285752 27.83571416 11.89285752 39.79285664 0L512 423.79285752l119.31428584 119.31428496c11.95714248 11.89285752 27.83571416 11.89285752 39.79285664 0 11.89285752-11.95714248 11.89285752-27.83571416 0-39.79285664L551.79285752 384l119.31428496-119.31428584c11.89285752-11.95714248 11.89285752-27.83571416 0-39.79285664-11.95714248-11.89285752-27.83571416-11.89285752-39.79285664 0L512 344.20714248z"  horiz-adv-x="1024" />

    
    <glyph glyph-name="bianji3" unicode="&#59914;" d="M358.859375 336.89062527a6.9609375 6.9609375 0 0 1-1.33593723-2.3203125l-42.04687554-159.046875a27.84375 27.84375 0 0 1 6.75-26.22656304 25.80468723 25.80468723 0 0 1 25.3125-6.89062446l153.00000054 43.10156223c0.2109375 0 0.35156277-0.2109375 0.56249946-0.2109375 1.75781223 0 3.51562527 0.70312473 4.78125027 2.03906277l409.21875 422.15624973A68.69531277 68.69531277 0 0 1 933.875 657.796875c0 21.09375-8.6484375 42.1875-23.90624973 57.796875l-38.6015625 40.00781277a79.03125027 79.03125027 0 0 1-56.03906277 24.60937446 64.47656277 64.47656277 0 0 1-46.828125-19.40625L359.4921875 338.29687473c-0.421875-0.35156277-0.28124973-0.98437527-0.6328125-1.40624946z m516.23437473 313.94531223l-40.64062446-41.90625027-65.95312527 69.04687554 40.078125 41.34375c6.328125 6.60937473 18.63281223 5.62500027 25.87500027-1.8984375l38.67187473-39.93750054c4.0078125-4.21875 6.328125-9.77343723 6.328125-15.1875a16.10156223 16.10156223 0 0 0-4.35937527-11.46093723zM431.6328125 330.35156277l295.3125 304.66406223 65.8125-69.11718777-294.60937527-304.10156196-66.51562473 68.5546875z m-53.7890625-123.609375l21.37499973 80.85937473 56.88281277-58.71093723-78.2578125-22.1484375z m500.69531277 276.75a29.60156223 29.60156223 0 0 1-29.17968804-29.17968804v-395.01562446a36.21093777 36.21093777 0 0 0-36.28125-36.703125h-629.29687473c-20.10937473 0-34.94531277 16.03125-34.94531277 36.703125V709.4765625c0 20.671875 14.83593723 36.21093777 34.87500054 36.21093777h431.92968696c15.53906277 0 28.19531277 14.27343777 28.19531277 30.30468696 0 16.10156223-12.65625 29.88281277-28.19531277 29.88281277H179.42187473C130.69531223 805.875 90.125 764.17968723 90.125 713.83593777v-658.96875C90.125 4.382812230000013 130.625-37.875 179.42187473-37.875h637.94531304c48.79687473 0 90.35156223 42.32812527 90.35156223 92.74218777V454.52343723a29.53125 29.53125 0 0 1-29.17968723 28.96875054z"  horiz-adv-x="1024" />

    
    <glyph glyph-name="tianjia1" unicode="&#59916;" d="M512-66c-247.5 0-450 202.5-450 450s202.5 450 450 450 450-202.5 450-450-202.5-450-450-450zM512 777.75A391.30714248 391.30714248 0 0 1 118.25 384 391.30714248 391.30714248 0 0 1 512-9.75 391.30714248 391.30714248 0 0 1 905.75 384 391.30714248 391.30714248 0 0 1 512 777.75zM708.90714248 355.84285752000005H315.02857168c-16.84285752 0-28.09285752 11.25-28.09285752 28.15714248s11.25 28.15714248 28.15714336 28.15714248h393.68571415c16.90714248 0 28.15714248-11.25 28.15714249-28.15714248s-11.25-28.15714248-28.15714248-28.15714248zM512 159c-16.90714248 0-28.15714248 11.25-28.15714248 28.15714248V580.77857168c0 16.90714248 11.25 28.15714248 28.15714248 28.15714248s28.15714248-11.25 28.15714248-28.15714248v-393.68571416c0-16.90714248-11.25-28.15714248-28.15714248-28.15714336z"  horiz-adv-x="1024" />

    
    <glyph glyph-name="bufen-yixuanjinyong" unicode="&#59927;" d="M62.0005625 664.68714932A168.91853906 168.91853906 0 0 0 231.31285068 833.9994375h561.37429864A168.91853906 168.91853906 0 0 0 961.9994375 664.68714932v-561.37429864A168.91853906 168.91853906 0 0 0 792.68714932-65.9994375H231.31285068A168.91853906 168.91853906 0 0 0 62.0005625 103.31285068V664.68714932zM737.28096875 440.24992969h-450.5619375C256.34406992 440.24992969 230.75035156 415.04996133 230.75035156 384c0-31.27496133 25.08746836-56.24992969 55.96867969-56.24992969h450.5619375c30.37496221 0 55.96867969 25.19996836 55.96867969 56.24992969 0 31.27496133-25.08746836 56.24992969-55.96867969 56.24992969z"  horiz-adv-x="1024" />

    
    <glyph glyph-name="fuxuan-weixuanjinyong" unicode="&#59929;" d="M62.0005625 664.68714932A168.91853906 168.91853906 0 0 0 231.31285068 833.9994375h561.37429864A168.91853906 168.91853906 0 0 0 961.9994375 664.68714932v-561.37429864A168.91853906 168.91853906 0 0 0 792.68714932-65.9994375H231.31285068A168.91853906 168.91853906 0 0 0 62.0005625 103.31285068V664.68714932z m56.24992969 0.22499912v-561.82429688C118.25049219 40.70667891000005 168.76292891-9.749507809999955 231.08785156-9.749507809999955h561.82429688A112.78110937 112.78110937 0 0 1 905.74950781 103.08785155999999V664.91214844A112.78110937 112.78110937 0 0 1 792.91214844 777.74950781H231.08785156A112.78110937 112.78110937 0 0 1 118.25049219 664.91214844zM118.25049219 777.74950781m112.49985937 0l562.49929688 0q112.49985937 0 112.49985937-112.49985937l0-562.49929688q0-112.49985937-112.49985937-112.49985937l-562.49929688 0q-112.49985937 0-112.49985937 112.49985937l0 562.49929688q0 112.49985937 112.49985937 112.49985937Z"  horiz-adv-x="1024" />

    
    <glyph glyph-name="fuxuan-yixuan" unicode="&#59930;" d="M62.0005625 664.68714932A168.91853906 168.91853906 0 0 0 231.31285068 833.9994375h561.37429864A168.91853906 168.91853906 0 0 0 961.9994375 664.68714932v-561.37429864A168.91853906 168.91853906 0 0 0 792.68714932-65.9994375H231.31285068A168.91853906 168.91853906 0 0 0 62.0005625 103.31285068V664.68714932zM737.28096875 440.24992969h-450.5619375C256.34406992 440.24992969 230.75035156 415.04996133 230.75035156 384c0-31.27496133 25.08746836-56.24992969 55.96867969-56.24992969h450.5619375c30.37496221 0 55.96867969 25.19996836 55.96867969 56.24992969 0 31.27496133-25.08746836 56.24992969-55.96867969 56.24992969z"  horiz-adv-x="1024" />

    
    <glyph glyph-name="fuxuan-yixuanjinyong" unicode="&#59931;" d="M386.84390644 168.67526894000002a55.96867969 55.96867969 0 0 1 85.16239366-7.03124121l318.59960185 318.54335186a56.47492969 56.47492969 0 0 1-0.16875 79.36865069 55.96867969 55.96867969 0 0 1-79.36865068 0.225L432.46259932 281.17512833 313.21274873 400.31247979a56.24992969 56.24992969 0 1 1-79.53740068-79.53740068l146.24981718-146.24981719c2.19374737-2.19374737 4.49999472-4.16249472 6.91874121-5.90624297zM62.0005625 664.68714932A168.91853906 168.91853906 0 0 0 231.31285068 833.9994375h561.37429864A168.91853906 168.91853906 0 0 0 961.9994375 664.68714932v-561.37429864A168.91853906 168.91853906 0 0 0 792.68714932-65.9994375H231.31285068A168.91853906 168.91853906 0 0 0 62.0005625 103.31285068V664.68714932z"  horiz-adv-x="1024" />

    
    <glyph glyph-name="fuxuan-yixuanhuang" unicode="&#59932;" d="M62.0005625 664.68714932A168.91853906 168.91853906 0 0 0 231.31285068 833.9994375h561.37429864A168.91853906 168.91853906 0 0 0 961.9994375 664.68714932v-561.37429864A168.91853906 168.91853906 0 0 0 792.68714932-65.9994375H231.31285068A168.91853906 168.91853906 0 0 0 62.0005625 103.31285068V664.68714932zM737.28096875 440.24992969h-450.5619375C256.34406992 440.24992969 230.75035156 415.04996133 230.75035156 384c0-31.27496133 25.08746836-56.24992969 55.96867969-56.24992969h450.5619375c30.37496221 0 55.96867969 25.19996836 55.96867969 56.24992969 0 31.27496133-25.08746836 56.24992969-55.96867969 56.24992969z"  horiz-adv-x="1024" />

    
    <glyph glyph-name="danxuan-weixuan" unicode="&#59933;" d="M962 384c0-247.5-202.5-450-450-450s-450 202.5-450 450 202.5 450 450 450 450-202.5 450-450z m-56.25 0c0 216.5625-177.1875 393.75-393.75 393.75S118.25 600.5625 118.25 384s177.1875-393.75 393.75-393.75 393.75 177.1875 393.75 393.75z"  horiz-adv-x="1024" />

    
    <glyph glyph-name="danxuan-yixuan" unicode="&#59934;" d="M512.0045 833.991a447.18302812 447.18302812 0 0 1-449.9955-449.9955c0-250.70374336 199.29175752-449.9955 449.9955-449.9955s449.9955 199.29175752 449.9955 449.9955-205.70419336 449.9955-449.9955 449.9955z m0-610.70014248A159.1859083 159.1859083 0 0 0 351.29985752 383.9955 159.1859083 159.1859083 0 0 0 512.0045 544.7001433600001 159.1859083 159.1859083 0 0 0 672.70914336 383.9955 159.1859083 159.1859083 0 0 0 512.0045 223.29085752000003z"  horiz-adv-x="1024" />

    
    <glyph glyph-name="fuxuan-yixuan1" unicode="&#59935;" d="M386.84390644 168.67526894000002a55.96867969 55.96867969 0 0 1 85.16239366-7.03124121l318.59960185 318.54335186a56.47492969 56.47492969 0 0 1-0.16875 79.36865069 55.96867969 55.96867969 0 0 1-79.36865068 0.225L432.46259932 281.17512833 313.21274873 400.31247979a56.24992969 56.24992969 0 1 1-79.53740068-79.53740068l146.24981718-146.24981719c2.19374737-2.19374737 4.49999472-4.16249472 6.91874121-5.90624297zM62.0005625 664.68714932A168.91853906 168.91853906 0 0 0 231.31285068 833.9994375h561.37429864A168.91853906 168.91853906 0 0 0 961.9994375 664.68714932v-561.37429864A168.91853906 168.91853906 0 0 0 792.68714932-65.9994375H231.31285068A168.91853906 168.91853906 0 0 0 62.0005625 103.31285068V664.68714932z"  horiz-adv-x="1024" />

    
    <glyph glyph-name="danxuanyixuanjinyong" unicode="&#59937;" d="M512.0045 833.991a447.18302812 447.18302812 0 0 1-449.9955-449.9955c0-250.70374336 199.29175752-449.9955 449.9955-449.9955s449.9955 199.29175752 449.9955 449.9955-205.70419336 449.9955-449.9955 449.9955z m0-610.70014248A159.1859083 159.1859083 0 0 0 351.29985752 383.9955 159.1859083 159.1859083 0 0 0 512.0045 544.7001433600001 159.1859083 159.1859083 0 0 0 672.70914336 383.9955 159.1859083 159.1859083 0 0 0 512.0045 223.29085752000003z"  horiz-adv-x="1024" />

    
    <glyph glyph-name="suoxiao" unicode="&#59955;" d="M822.46175263 419.18217597a345.63464823 345.63464823 0 1 1-691.2692956 0 345.63464823 345.63464823 0 0 1 691.2692956 0z m69.12693018 0A414.76157753 414.76157753 0 1 0 62.00928125 419.18217597a414.76157753 414.76157753 0 0 0 829.57940156 0zM729.26132802 116.74482862000002a34.53534141 34.53534141 0 0 0 0 48.9344414 34.87282031 34.87282031 0 0 0 49.21567383 0l173.23917276-172.50796846a34.53534141 34.53534141 0 0 0-15.58027617-57.99012539 34.87282031 34.87282031 0 0 0-33.57915117 8.9994375l-173.23917276 172.56421495z m-391.25054706 266.04587197a34.59158789 34.59158789 0 0 0-34.64783438 34.5353414c0 19.0675582 15.4677832 34.53534141 34.64783438 34.5353414h277.23892236a34.59158789 34.59158789 0 0 0 0-69.01443632h-277.29516885z"  horiz-adv-x="1024" />

    
    <glyph glyph-name="xiazai1" unicode="&#59956;" d="M324.6875 566.25h130.6125V834h130.10625v-267.75h130.6125L520.325 364.36875 324.6875 566.25z m508.725 150.35625C904.45625 716.60625 962 658.21875 962 586.1625v-391.275c0-72.05625-57.54375-130.5-128.5875-130.5H576.29375v-65.19375h192.65625V-66H254.65625v65.25h193.05v65.19375H190.5875C119.54375 64.44375000000002 62 122.83124999999995 62 194.88750000000005V586.1625c0 72.05625 57.54375 130.44375 128.5875 130.44375h128.3625v-65.25H190.5875c-35.4375 0-64.29375-29.25-64.29375-65.19375v-391.275c0-36 28.8-65.25 64.29375-65.25h642.825c35.4375 0 64.29375 29.25 64.29375 65.25V586.1625c0 36-28.8 65.25-64.29375 65.25H705.5V716.60625h127.96875z"  horiz-adv-x="1024" />

    
    <glyph glyph-name="fangda" unicode="&#59957;" d="M822.46175263 419.18217597a345.63464824 345.63464824 0 1 1-691.2692956 0 345.63464824 345.63464824 0 0 1 691.2692956 0z m69.12693018 0A414.76157753 414.76157753 0 1 0 62.00928125 419.18217597a414.76157753 414.76157753 0 0 0 829.57940156 0zM729.26132802 116.74482862000002a34.53534141 34.53534141 0 0 0 0 48.9344414 34.87282031 34.87282031 0 0 0 49.21567383 0l173.23917276-172.50796846a34.53534141 34.53534141 0 0 0-15.58027617-57.99012539 34.87282031 34.87282031 0 0 0-33.57915117 8.9994375l-173.23917276 172.56421495z m-391.25054706 266.04587197a34.59158789 34.59158789 0 0 0-34.64783438 34.5353414c0 19.0675582 15.4677832 34.53534141 34.64783438 34.5353414h277.23892236a34.59158789 34.59158789 0 0 0 0-69.01443632h-277.29516885zM514.51224981 280.42209902c0-19.18005117-15.74901563-34.70408086-35.21029922-34.70408173a34.9290668 34.9290668 0 0 0-35.21029922 34.70408173V557.94225381c0 19.12380469 15.74901563 34.64783438 35.21029922 34.64783437s35.21029922-15.52402969 35.21029922-34.64783437v-277.52015479z"  horiz-adv-x="1024" />

    
    <glyph glyph-name="xuanzhuan" unicode="&#59958;" d="M931.53234658 44.75557939999999a30.19717178 30.19717178 0 0 0-30.19717177 30.19717177v83.67484482a450.42709043 450.42709043 0 0 0-71.41603008-92.78460615 449.18996221 449.18996221 0 0 0-388.51445303-126.24329794 447.72790166 447.72790166 0 0 0-242.64580517 121.40725166 30.19717178 30.19717178 0 1 0 37.4512412 47.29203281l0.22493233 0.22493232a387.61472373 387.61472373 0 0 1 204.96963164-107.68637637 388.96431768 388.96431768 0 0 1 345.8335333 107.68637637 389.1330167 389.1330167 0 0 1 71.07863203 97.2832544H770.53699619a30.19717178 30.19717178 0 0 0 0 60.39434355h160.99535039c16.70122881 0 30.19717178-13.49594297 30.19717266-30.19717177v-161.0515837c0-16.64499638-13.49594297-30.19717178-30.19717266-30.19717177z m-298.87889941 510.31533603c27.77914863 0 50.32861963-22.4932377 50.32862051-50.32861963v-241.57737598c0-27.77914863-22.54947099-50.32861963-50.32862051-50.32861963H391.07607119a50.32861963 50.32861963 0 0 0-50.32861963 50.32861963V504.7422958c0 27.77914863 22.54947099 50.32861963 50.32861963 50.32861963h241.57737598zM401.08556269 288.35734628c0-8.37873106 6.74797148-15.12670254 15.12670254-15.12670253h191.19252217c8.32249776 0 15.12670254 6.74797148 15.12670254 15.12670253V479.54986933A15.07046924 15.07046924 0 0 1 607.4610207 494.7328043H416.26849766a15.07046924 15.07046924 0 0 1-15.12670255-15.12670255v-191.19252216z m405.60931319 364.39045489a30.08470606 30.08470606 0 0 0-19.23171856 6.91667051l-0.22493232-0.28116475a389.58288135 389.58288135 0 0 1-621.88179609-97.28325439H253.19252305a30.19717178 30.19717178 0 0 0 0-60.39434444H92.19717178A30.19717178 30.19717178 0 0 0 62 531.90288076V692.9544644499999a30.19717178 30.19717178 0 1 0 60.39434356 0v-83.6748457a449.75229346 449.75229346 0 0 0 525.32957285 203.56380352V813.01212217a447.72790166 447.72790166 0 0 0 177.30294872-105.99938438 30.19717178 30.19717178 0 0 0-18.27575595-54.26493662z"  horiz-adv-x="1024" />

    
    <glyph glyph-name="tongzhi" unicode="&#59965;" d="M843.453099 547.566933a42.325333 42.325333 0 0 1-59.665067 0 38.365867 38.365867 0 0 1 0-57.344 157.013333 157.013333 0 0 0 47.240533-114.414933c0-45.056-12.970667-86.152533-47.240533-114.824533a38.365867 38.365867 0 0 1 0-57.344 42.325333 42.325333 0 0 1 59.665067 0c46.8992 45.124267 76.3904 106.632533 76.3904 172.032 0 65.604267-29.4912 131.003733-76.3904 171.895466zM581.923499 821.179733l-285.2864-169.301333v-551.867733l285.2864-169.028267c53.930667-35.2256 100.1472-7.850667 100.1472 54.8864V761.173333c0 68.061867-46.2848 92.091733-100.1472 60.074667zM0.018432 533.367467c0 67.1744 51.4048 118.306133 118.5792 118.306133h118.510933v-552.004267H118.597632A116.394667 116.394667 0 0 0 0.018432 218.112v315.392z m947.2 117.76C1037.193899 581.2224 1092.080299 483.669333 1092.285099 375.057067c0-108.680533-55.0912-205.6192-145.066667-275.524267a58.231467 58.231467 0 0 0-69.905067 0c-20.002133 15.5648-20.002133 38.843733 0 54.340267 70.109867 58.299733 116.599467 131.754667 116.599467 221.184 0 89.361067-46.6944 167.389867-116.599467 221.730133-20.002133 15.5648-20.002133 38.775467 0 54.340267a58.231467 58.231467 0 0 0 69.905067 0z"  horiz-adv-x="1092" />

    
    <glyph glyph-name="kongyemian" unicode="&#60014;" d="M65.382868 750.123503l82.903844-82.89715a37.754144 37.754144 0 0 1 53.388549 53.388549l-43.837909 43.837908a20.138667 20.138667 0 0 0 33.296732 20.747713l38.095477-38.095477c74.912627 48.971294 164.823843 77.502745 261.501491 77.502745 19.308758 0 38.349804-1.137778 57.049516-3.346405 185.89281-18.465464 349.786353-145.608784 403.690248-333.583059a458.035869 458.035869 0 0 0-1.231477-257.66651l95.472941-52.920052a42.787137 42.787137 0 0 0-41.495425-74.8457l-98.016209 54.332236a37.767529 37.767529 0 0 1-31.201882-65.41553l46.608732-25.834248a20.138667 20.138667 0 0 0-19.522928-35.217569l-47.117386 26.115347a474.54034 474.54034 0 0 0-85.239634-77.315347H217.142346a468.51681 468.51681 0 0 0-6.036915 4.383791C93.726921 68.032418 17.542659 204.746458 17.542659 358.975582a458.035869 458.035869 0 0 0 72.20204 247.339503L12.563208 683.503268a42.787137 42.787137 0 0 0 52.81966 66.620235zM27.488176-37.560052h862.187921a10.982902 10.982902 0 1 1 0 21.965804H27.488176a10.982902 10.982902 0 1 1 0-21.965804zM933.587627-37.560052h57.665255a10.982902 10.982902 0 1 1 0 21.965804h-57.665255a10.982902 10.982902 0 0 1 0-21.965804zM565.657065-81.49166h27.453908a10.982902 10.982902 0 1 1 0 21.965804h-27.453908a10.982902 10.982902 0 1 1 0-21.965804zM60.436882-125.423268h310.466091a10.982902 10.982902 0 0 1 0 21.965804H60.436882a10.982902 10.982902 0 0 1 0-21.965804zM450.333248-125.423268h475.055686a10.982902 10.982902 0 0 1 0 21.965804h-475.055686a10.982902 10.982902 0 0 1 0-21.965804zM219.685614-81.49166h274.579241a10.982902 10.982902 0 1 1 0 21.965804H219.692306a10.982902 10.982902 0 1 1 0-21.965804zM659.015078-81.49166h241.623843a10.982902 10.982902 0 0 1 0 21.965804H659.015078a10.982902 10.982902 0 1 1 0-21.965804zM315.794372 846.573595a19.221752 19.221752 0 1 1 0 38.443503 19.221752 19.221752 0 0 1 0-38.443503z m0-10.976209a30.204654 30.204654 0 1 0 0 60.402614 30.204654 30.204654 0 0 0 0-60.409307zM870.434267 237.012497a19.221752 19.221752 0 1 1 0 38.443503 19.221752 19.221752 0 0 1 0-38.443503z m0-10.976209a30.204654 30.204654 0 1 0 0 60.402614 30.204654 30.204654 0 0 0 0-60.409307zM381.691784 665.352366a13.726954 13.726954 0 1 1 0 27.460601 13.726954 13.726954 0 0 1 0-27.460601z m0-10.976209a24.709856 24.709856 0 1 0 0 49.419712 24.709856 24.709856 0 0 0 0-49.426405zM145.556045 467.660131a19.221752 19.221752 0 1 1 0 38.443503 19.221752 19.221752 0 0 1 0-38.443503z m0-10.982902a30.204654 30.204654 0 1 0 0 60.409307 30.204654 30.204654 0 0 0 0-60.409307zM906.133718 852.068392a21.965804 21.965804 0 1 1 0 43.931608 21.965804 21.965804 0 0 1 0-43.931608zM880.386476 802.106562l-20.901647-48.884287-19.516235 45.665045-54.65349 23.458301 51.601568 22.153203L859.491522 896l23.98034-54.727111 44.634353-18.927268-47.713046-20.239059zM715.375235 593.913307l21.718169 3.045229-16.16983 12.62264-3.801516 24.990955-14.864732-18.572549-23.511843-3.406641 19.763869-15.567477 2.971608-20.801255 13.894275 17.689098z m-14.690719 32.955399l-7.007373-4.015686 2.710588 3.393255 4.296785 0.622431z m-6.431791-77.636601l-5.996758 41.883607-36.408889 28.685386 44.540653 6.445177 27.815321 34.762457 6.920366-45.457569 33.136104-25.867712-42.974536-6.023529-27.032261-34.421125zM186.355418 215.428183l-9.276236-27.842091-8.941595 26.844862-30.820392 10.273464 29.823164 9.945517 9.938823 29.823163 10.273464-30.820392L214.197509 224.711111l-27.842091-9.276235zM324.595418 549.466353l-5.300706-15.908811-5.113308 15.339922-17.608784 5.869595 17.039896 5.682196 5.682196 17.039895 5.869594-17.608784 15.339922-5.113307-15.90881-5.300706zM344.620306 429.149699h332.237804-332.231111zM730.246659 379.796915c0.107085-1.378719 0.160627-2.770824 0.160628-4.176314v-218.70766a53.542484 53.542484 0 0 0-53.542484-53.542483h-332.231111a53.542484 53.542484 0 0 0-53.542484 53.542483V375.613908c0 1.40549 0.04685 2.797595 0.153935 4.176314H730.246659zM730.400594 234.268444V156.752314a53.542484 53.542484 0 0 0-53.542484-53.542484h-332.231111a53.542484 53.542484 0 0 0-53.542483 53.542484V234.268444h439.316078zM291.077823 379.790222h439.322771v-76.880314H291.077823zM730.400594 379.790222h-439.316078v-232.494849a43.931608 43.931608 0 0 1 43.924915-43.931608H686.475679a43.931608 43.931608 0 0 1 43.931608 43.931608V379.790222z m10.982902 8.125072v-240.619921a54.91451 54.91451 0 0 0-54.91451-54.91451H335.009431a54.91451 54.91451 0 0 0-54.91451 54.91451V389.193621l461.288575-1.271634zM324.026529 352.336314m5.494797 0l109.822327 0q5.494797 0 5.494797-5.494798l0 0.006693q0-5.494797-5.494797-5.494797l-109.822327 0q-5.494797 0-5.494797 5.494797l0-0.006693q0 5.494797 5.494797 5.494798ZM455.828045 352.336314m5.494797 0l10.97621 0q5.494797 0 5.494797-5.494798l0 0.006693q0-5.494797-5.494797-5.494797l-10.97621 0q-5.494797 0-5.494797 5.494797l0-0.006693q0 5.494797 5.494797 5.494798ZM302.060725 390.773124h415.690457l-9.905359 27.460601H311.972777l-9.905359-27.460601z m-15.641098-10.976209L304.262659 429.216627h411.293281l17.83634-49.426405H286.419627zM302.060725 390.773124l9.912052 27.460601h395.873046l9.905359-27.460601h-415.690457zM181.141718 390.57234L303.446136 429.216627l-4.979451-45.484339L159.282999 344.043922l21.858719 46.528418z m111.636079 2.958222l-3.647582-3.379869 0.963765 2.610196 2.683817 0.769673zM179.488594 361.224366l100.82719 28.752314 9.778196 2.790902 8.265621 22.447686L189.019156 381.496889l-9.530562-20.279216zM836.247391 390.57234L713.929587 429.216627l4.979451-45.484339 139.19038-39.688366-21.852027 46.528418z m-111.636078 2.958222l3.640889-3.379869-0.963765 2.610196-2.677124 0.769673z m113.28251-32.306196L737.073326 389.97668l-9.784889 2.790902-8.265621 22.447686L828.363261 381.496889l9.523869-20.279216zM572.363261 160.132183a12.200993 12.200993 0 0 1 0-24.40868h107.392836a12.200993 12.200993 0 0 1 0 24.40868H572.369953z m0 10.976209h107.392836a23.183895 23.183895 0 0 0 0-46.367791H572.369953a23.183895 23.183895 0 0 0 0 46.374484zM560.162267 160.132183m12.200994 0l107.392836 0q12.200993 0 12.200994-12.200993l0-0.006693q0-12.200993-12.200994-12.200994l-107.392836 0q-12.200993 0-12.200994 12.200994l0 0.006693q0 12.200993 12.200994 12.200993ZM554.138738 621.01919c-7.93098 14.215529-22.287059 22.367373-39.367111 22.367372-25.800784 0-40.872993-14.423007-47.518955-38.985621-4.156235-15.333229 22.092967-26.262588 27.949177-5.421176 3.145621 11.176993 7.388863 15.861961 19.569778 15.86196 6.746353 0 11.64549-2.623582 14.510013-7.76366 3.11885-5.59519 2.824366-12.448627 0.722823-15.882039-3.413333-5.555033-7.067608-8.780967-11.290771-12.50217-8.847895-7.790431-19.83749-17.735948-19.83749-44.259555 0-14.068288 14.242301-14.275765 14.2423-14.275765a14.269072 14.269072 0 0 1 14.242301 14.275765c0 13.880889 2.964915 16.491085 10.126222 22.789019 4.979451 4.377098 11.143529 9.804967 16.792262 19.02766 7.897516 12.917124 7.843974 30.479059-0.140549 44.76821zM544.748725 581.859556c-4.771974-7.790431-9.972288-12.368314-14.563556-16.43085-7.897516-6.960523-13.606484-11.993516-13.606484-30.532601a3.527111 3.527111 0 1 0-7.040836 0c0 21.738248 7.76366 28.584993 16.00251 35.846692 4.423948 3.908601 9.00183 7.937673 13.198222 14.81119 4.397176 7.181386 4.189699 18.057203-0.495268 26.449987-4.705046 8.446327-13.071059 13.117908-23.552 13.117908-17.066667 0-26.516915-7.730196-29.709386-24.308287a3.513725 3.513725 0 1 0-6.90698 1.338562c3.83498 19.93119 16.149752 30.037333 36.616366 30.037333 13.14468 0 23.692549-5.956601 29.696-16.732026 5.969987-10.688418 6.103843-24.187817 0.361412-33.597908zM513.4933 512.689359a16.798954 16.798954 0 1 1-0.013386-33.604601 16.798954 16.798954 0 0 1 0.013386 33.604601zM513.4933 489.953882a5.92983 5.92983 0 1 0-0.020079 11.85966 5.92983 5.92983 0 0 0 0.020079-11.85966z"  horiz-adv-x="1070" />

    
    <glyph glyph-name="shanchu5" unicode="&#60016;" d="M799.104 33.92a62.464 62.464 0 0 0-62.4-62.336H287.296a62.464 62.464 0 0 0-62.4 62.336V696.064h574.208V33.92zM349.696 808a12.608 12.608 0 0 0 12.8 12.8h299.84a12.608 12.608 0 0 0 12.8-12.8v-37.568H349.696v37.568z m636.48-37.568h-236.672v37.568c0 48-39.168 87.168-87.168 87.168H362.496c-48 0-87.168-39.168-87.168-87.168v-37.568H37.76a37.568 37.568 0 1 1 0-75.2H149.76V33.92c0-75.968 61.568-137.536 137.6-137.536h449.344c75.968 0 137.6 61.568 137.6 137.6V696h111.872a37.568 37.568 0 0 1 37.632 37.568 36.864 36.864 0 0 1-37.632 36.8zM512 84.352a37.568 37.568 0 0 1 37.568 37.504V521.728a37.568 37.568 0 1 1-75.136 0v-399.872a37.568 37.568 0 0 1 37.568-37.568z m-175.104 0a37.568 37.568 0 0 1 37.568 37.504V521.728a37.568 37.568 0 1 1-75.2 0v-399.872a38.592 38.592 0 0 1 37.632-37.568z m350.208 0a37.568 37.568 0 0 1 37.632 37.504V521.728a37.568 37.568 0 1 1-75.2 0v-399.872a37.568 37.568 0 0 1 37.568-37.568z"  horiz-adv-x="1024" />

    
    <glyph glyph-name="tianjiachangyonggongneng" unicode="&#60019;" d="M549.47857167 421.47857167h375.04285666a37.47857167 37.47857167 0 1 0-1e-8-74.95714334H549.47857167v-375.04285666a37.47857167 37.47857167 0 0 0-74.95714334 1e-8V346.52142833000005H99.47857168a37.47857167 37.47857167 0 1 0 0 74.95714334h375.04285665V796.52142832a37.47857167 37.47857167 0 0 0 74.95714335 0v-375.04285665z"  horiz-adv-x="1024" />

    
    <glyph glyph-name="fujian1" unicode="&#60063;" d="M838.37755391 834c32.78566758 0 59.33562979-25.19996396 59.33562978-56.24992002v-581.9134544a54.6427793 54.6427793 0 0 0-17.35711787-39.66422871l-217.02826142-205.7139914A60.94277051 60.94277051 0 0 0 621.28500752-65.99871415999996H185.62134394C152.83567636-65.99871415999996 126.28571416-40.798750189999964 126.28571416-9.748795019999989V777.75007998C126.28571416 808.80003604 152.89996221 834 185.62134394 834h652.75620997z m-178.07117432-806.78456192l139.04980137 131.78552608h-109.28555772a28.92853037 28.92853037 0 0 1-29.69995781-28.15710293v-103.62842315z m178.07117432 188.03544609V749.65726377a28.92853037 28.92853037 0 0 1-29.69995694 28.09281621h-593.35629522a28.92853037 28.92853037 0 0 1-29.69995781-28.15710205v-731.18467002a28.92853037 28.92853037 0 0 1 29.69995781-28.15710293h385.7137339V159.00096415999997c0 31.04995606 26.54996221 56.24992002 59.33562978 56.24992002h178.00688848zM638.64212539 609.0003216800001H308.21402568a27.128533 27.128533 0 0 1-27.57853212-26.80710469c0-14.78569307 12.2785541-26.74281885 27.57853212-26.74281884H638.64212539a27.128533 27.128533 0 0 1 27.57853213 26.74281884 27.128533 27.128533 0 0 1-27.57853213 26.80710468z m0-160.71405645H308.21402568a27.128533 27.128533 0 0 1-27.57853212-26.80710468c0-14.78569307 12.2785541-26.74281885 27.57853212-26.74281885H638.64212539a27.128533 27.128533 0 0 1 27.57853213 26.74281885A27.128533 27.128533 0 0 1 638.70641123 448.28626523z m0-160.71405645H308.21402568a27.128533 27.128533 0 0 1-27.57853212-26.8071038c0-14.78569307 12.2785541-26.74281885 27.57853212-26.74281972H638.64212539a27.128533 27.128533 0 0 1 27.57853213 26.74281972 27.128533 27.128533 0 0 1-27.57853213 26.8071038z"  horiz-adv-x="1024" />

    
    <glyph glyph-name="tishi1" unicode="&#60065;" d="M1102.40036183 883.393603c22.49331086 0 42.12527701 19.79093527 42.12527701 42.44320485v214.91840483a43.3175062 43.3175062 0 0 1-42.12527701 42.44320477c-22.41382891 0-42.12527701-19.87041194-42.12528233-42.44320477v-214.91840483c0-22.65227487 16.85011403-42.4432048 42.12528233-42.44320485z m-384.69122935-87.66827237a42.12527701 42.12527701 0 0 1 30.83888327-11.36587574 42.12527701 42.12527701 0 0 1 30.91836512 11.36587574 41.25098093 41.25098093 0 0 1 0 59.37280073l-151.65100463 152.76374662a40.53564335 40.53564335 0 0 1-58.97539104-1e-8 41.25098093 41.25098093 0 0 1 0-59.45227738l148.78966541-152.68426996zM563.11730649 509.98877273H346.92719579c-22.49331086 0-42.12527701-19.79093527-42.125277-42.44320484 0-22.57279282 19.63197142-42.36372285 42.125277-42.36372819h213.48773516c22.41382891 0 42.12527701 19.79093527 42.12528233 42.36372819 0 22.65227487-16.85011403 42.4432048-39.34342488 42.44320485z m1289.1130193 1e-8h-213.48773514c-22.41382891 0-42.12527701-19.79093527-42.12527701-42.44320485 0-22.57279282 19.71145345-42.36372285 42.12527701-42.36372819h213.48773514c22.49331086 0 42.12527701 19.79093527 42.1252769 42.36372819a41.48942674 41.48942674 0 0 1-42.1252769 42.44320485z m-395.97762315 271.58882477a42.12527701 42.12527701 0 0 1 30.83888323 11.28639367l151.65100478 152.76375205a41.25098093 41.25098093 0 0 1 0 59.37279535 40.53564335 40.53564335 0 0 1-58.97539101 0l-151.65100477-152.7637466a41.25098093 41.25098093 0 0 1 0-59.3728008c5.56371491-5.64319686 16.85011403-11.28639369 28.13650777-11.28639367z m-199.49896052-964.58940485h-314.50892124a38.54860543 38.54860543 0 0 1-39.26394293-39.58186535v-5.6432022c0-22.65227487 16.85011403-39.58186543 39.26394293-39.58186538h314.58840321a38.54860543 38.54860543 0 0 1 39.26393755 39.58186538v5.6432022a38.54860543 38.54860543 0 0 1-39.26393755 39.58186535z m-2.78185749 602.47096825h-308.86572434c-22.49331086 0-42.12527701-19.79093527-42.12528234-42.36372281 0-22.65227487 19.63197142-42.4432048 42.12528234-42.44320478h112.30757978v-254.57975214c0-22.65227487 16.85011403-39.58186543 39.34342486-39.58186544H1099.6185044a38.54860543 38.54860543 0 0 1 39.34341953 39.58186544v254.57975214h112.30758525c22.49331086 0 42.12527701 19.79093527 42.12527684 42.44320478 2.78185743 22.57279282-14.06825117 42.36372285-39.3434195 42.36372281z m-81.38921991-741.00749973h-140.44408763c-22.49331086 0-42.12527701-19.87041194-42.12528228-42.44320476 0-22.65227487 19.63197142-42.4432048 42.12528228-42.44320488h140.44408763c22.41382891 0 42.12527701 19.87041194 42.12527699 42.44320488-2.86133934 25.43413221-19.71145345 42.4432048-42.12527699 42.44320476zM1103.59258569 837.61216716c-226.20479854 0-413.30462343-179.15165683-413.30462339-401.70030192 0-111.27431991 47.45055141-217.22337059 131.22421909-293.20783955l39.10497372-127.56806024c2.78185743-43.39698821 39.10497373-75.98446359 86.63500706-75.98446358h315.54218657a86.63500708 86.63500708 0 0 1 86.55552512 75.98446358l39.02549182 127.56806024a395.42124951 395.42124951 0 0 1 131.30370094 293.20783955c-2.78185743 219.8462695-187.09982487 401.70030195-416.08648093 401.70030196z m217.77974435-640.62216928l-8.34557248-8.10712659-47.45055137-154.75079-2.86133944-8.10712646v-5.48423839l-318.32404402 2.78185754v5.40475635l-47.45055138 160.15554096-8.3455724 8.10712659c-69.86438041 59.77020519-111.7512115 149.34603355-111.7512115 238.92186736 0 176.44928135 147.99484586 320.31108192 329.53095584 320.3110819s329.5309558-143.86180059 329.53095572-320.3110819a327.86184018 327.86184018 0 0 0-114.45358698-238.92186736z"  horiz-adv-x="2194" />

    
    <glyph glyph-name="bangzhu" unicode="&#60176;" d="M512.384 894.848C229.824 894.848 0.832 666.048 0.832 383.872c0-282.24 228.992-511.04 511.552-511.04 282.56 0 511.552 228.8 511.552 511.04S794.944 894.848 512.384 894.848z m31.488-756.352a52.096 52.096 0 0 0-35.584-13.696 53.952 53.952 0 0 0-36.48 13.504c-10.432 9.024-15.616 21.632-15.616 37.824 0 14.4 5.056 26.496 15.104 36.288a50.944 50.944 0 0 0 36.992 14.72c14.4 0 26.496-4.928 36.288-14.72a49.28 49.28 0 0 0 14.72-36.288c0-16-5.12-28.48-15.36-37.632z m128 316.864c-7.872-14.592-17.28-27.2-28.16-37.76-10.816-10.624-30.272-28.48-58.368-53.568-7.744-7.04-13.952-13.312-18.688-18.688-4.672-5.376-8.128-10.24-10.432-14.72-2.304-4.48-4.032-8.896-5.312-13.312-1.28-4.48-3.136-12.224-5.632-23.424-4.352-23.744-17.92-35.648-40.768-35.648a41.664 41.664 0 0 0-30.016 11.648c-8.064 7.744-12.16 19.264-12.16 34.56 0 19.2 3.008 35.776 8.96 49.792 5.888 14.08 13.76 26.368 23.616 36.992 9.792 10.56 23.04 23.168 39.68 37.76 14.656 12.8 25.216 22.4 31.744 28.928 6.464 6.528 11.968 13.76 16.448 21.76A52.416 52.416 0 0 1 589.44 505.6a60.416 60.416 0 0 1-20.352 46.208c-13.632 12.544-31.168 18.816-52.608 18.816-25.152 0-43.648-6.4-55.488-19.008-11.904-12.672-21.952-31.296-30.144-55.936-7.808-25.792-22.528-38.656-44.224-38.656-12.8 0-23.552 4.48-32.384 13.504a41.216 41.216 0 0 0-13.12 29.248c0 21.696 6.912 43.648 20.864 65.92 13.952 22.208 34.24 40.64 60.992 55.232 26.688 14.592 57.856 21.888 93.504 21.888 33.152 0 62.336-6.08 87.68-18.304 25.408-12.16 44.992-28.8 58.752-49.792 13.824-20.992 20.736-43.776 20.736-68.48 0-19.328-3.904-36.352-11.776-50.944z"  horiz-adv-x="1024" />

    
    <glyph glyph-name="ic_lock" unicode="&#60191;" d="M512 384m-512 0a512 512 0 1 1 1024 0 512 512 0 1 1-1024 0ZM665.6 100.010667H368.128a94.776889 94.776889 0 0 0-94.663111 94.663111v175.786666a94.776889 94.776889 0 0 0 94.663111 94.663112h297.528889a94.72 94.72 0 0 0 94.606222-94.663112v-175.786666a94.776889 94.776889 0 0 0-94.663111-94.663111zM375.011556 430.876444c-35.612444 0-64.455111-28.842667-64.455112-64.455111v-167.651555c0-35.612444 28.899556-64.512 64.455112-64.512h283.761777c35.555556 0 64.455111 28.899556 64.455111 64.512V366.364444c0 35.555556-28.899556 64.455111-64.455111 64.455112H375.011556zM665.6 493.909333v25.315556c0 84.252444-65.251556 147.911111-152.120889 148.764444h-1.649778c-88.291556-0.796444-157.240889-65.877333-157.240889-148.764444v-67.697778a13.482667 13.482667 0 0 1 13.539556-13.425778c7.509333 0 22.983111 6.087111 22.983111 13.539556V519.224889c0 67.982222 57.742222 112.412444 121.514667 112.412444 65.877333 0 115.029333-43.235556 115.029333-112.412444v-27.022222l0.113778-0.682667a19.000889 19.000889 0 0 1 37.944889 1.137778l-0.056889 1.251555zM597.902222 306.062222a81.237333 81.237333 0 0 1-81.180444 81.123556 81.237333 81.237333 0 0 1-81.123556-81.123556c0-39.367111 28.103111-72.135111 65.308445-79.530666v-36.295112l-0.056889-0.682666v-0.967111h0.056889a15.815111 15.815111 0 0 1 31.573333 0v0.284444l0.113778 0.682667-0.113778 0.682666v36.295112a81.294222 81.294222 0 0 1 65.422222 79.530666z m-131.015111 0a49.891556 49.891556 0 0 0 99.669333 0 49.891556 49.891556 0 0 0-49.834666-49.891555 49.891556 49.891556 0 0 0-49.834667 49.891555z"  horiz-adv-x="1024" />

    
    <glyph glyph-name="shanchu6" unicode="&#60207;" d="M512 896a512 512 0 1 0 0-1024A512 512 0 0 0 512 896zM308.672 231.424a35.84 35.84 0 1 1 50.816-50.752l152.32 152.32 152.256-152.32a35.84 35.84 0 0 1 50.752 50.752l-152.32 152.32 152.32 152.32a35.904 35.904 0 0 1-50.752 50.752l-152.32-152.32-152.32 152.32a35.968 35.968 0 0 1-50.752-50.752l152.32-152.32-152.32-152.32z"  horiz-adv-x="1024" />

    
    <glyph glyph-name="rengongzixun" unicode="&#60384;" d="M742.41224229 237.22222382999996c-28.40600391 18.48188057-82.84485146 48.11042109-127.14383409 39.55266299-14.8142707-2.87655732-27.68686435-9.81625166-37.35928828-20.09994434l-24.27095214-25.88901592c-46.06087412 0.79105342-98.91761572 30.41959394-142.03001866 79.93233721-43.14835987 49.47678633-65.2259373 105.78539619-59.6526082 151.3788293l29.05322958 20.45951454c37.03567588 26.06880059 40.05606094 80.90317529 8.59371505 154.61495684C364.2168667 696.39268857 296.2581998 804.51528721 220.02943027 789.7010173900001c-7.33522148-1.43827911-14.52661435-4.02718008-21.10673935-7.6588339l-50.51953829-27.8666499A137.78709609 137.78709609 0 0 1 77.28027295 635.62541455c-1.90571924-144.54700576 67.56314063-308.43886026 190.57192295-449.60591162 123.08069707-141.16705136 276.14950401-232.56966094 419.79758642-250.7279291a137.82305302 137.82305302 0 0 1 127.64723203 53.79162275l34.6265587 46.02491719c12.33323965 16.32446279 28.01047676 51.6342041-5.42950225 104.99434277-20.20781513 32.21744238-59.25708106 69.46885987-102.08182851 97.11976729z m70.29587021-174.21150411l-34.66251563-46.02491719a91.3306957 91.3306957 0 0 0-84.46291523-35.59739677c-132.57333633 16.75594687-274.92696738 102.47735479-390.6005291 235.15856192-115.60164786 132.68120713-180.97141377 285.21066006-179.1376084 418.53909287a91.25878183 91.25878183 0 0 0 47.10362695 78.4940581l50.44762442 27.90260596a26.7519832 26.7519832 0 0 0 7.47904834 2.69677266c35.59739677 6.9037374 89.676675-59.18516719 117.93885117-125.27407178 20.67525615-48.39807744 23.55181347-87.01585927 7.47904922-98.41421778l-44.22706963-31.03086269-0.71913867-2.76868653c-15.89297959-61.59428438 9.81625166-140.73556729 67.09569961-206.46490253 57.35136182-65.80124912 132.32163779-102.18969932 195.64185586-94.99830645l2.87655732 0.35957021 36.92780508 39.3369214a21.64609424 21.64609424 0 0 0 12.22536796 6.22055477c42.50113506 8.2341457 143.89978096-56.59626533 180.86354297-115.63760477 9.81625166-15.60532324 19.16506318-37.39524521 7.73074776-52.4971714z m44.29898262 601.81175216a420.4088543 420.4088543 0 0 1-281.90261866 159.54106113 23.19224326 23.19224326 0 0 1-5.75311464-46.02491718 374.06032471 374.06032471 0 0 0 250.87175683-142.03001866 372.5141748 372.5141748 0 0 0 76.58833887-277.51586924 23.19224326 23.19224326 0 0 1 27.54303662-25.63731738 23.26415713 23.26415713 0 0 1 18.69762305 19.95611659 418.86270527 418.86270527 0 0 1-86.04502207 311.71094473z m-299.23387647 20.35164286a23.1203294 23.1203294 0 0 1-25.96092978-20.20781513 23.19224326 23.19224326 0 0 1 20.13590126-25.88901592A234.43942324 234.43942324 0 0 0 709.25991963 549.9399627a233.21688575 233.21688575 0 0 0 48.07446415-173.92384776 23.33607099 23.33607099 0 0 1 46.2406588-5.71715772 279.78115781 279.78115781 0 0 1-57.53114649 208.19083712 281.21943691 281.21943691 0 0 1-188.23472051 106.6843204z m-23.22820019-185.28624931a95.64553125 95.64553125 0 0 0 83.2044208-106.64836348 23.30011406 23.30011406 0 0 1 46.24065879-5.68120078 142.13788945 142.13788945 0 0 1-123.65600801 158.42639531 23.26415713 23.26415713 0 0 1-26.03284453-20.13590127 23.26415713 23.26415713 0 0 1 20.24377295-25.96092978z"  horiz-adv-x="1024" />

    
    <glyph glyph-name="pinglun" unicode="&#60487;" d="M512.58915921-57.86906337000005a461.90046138 461.90046138 0 0 0-50.19632561 2.76904566C275.15818203-34.77404077999995 97.1733233 140.08827700999996 73.66588913 326.73376939a441.27990416 441.27990416 0 0 0 125.84430926 369.69711589A440.86749395 440.86749395 0 0 0 569.26623061 822.33411087c186.29199712-23.44851785 361.15431493-201.25662893 381.8337871-388.07886894a438.98218502 438.98218502 0 0 0-63.62914512-283.26752849c11.19401674-40.65195383 42.41943008-148.23234133 42.41943008-148.23234131a29.3401058 29.3401058 0 1 0-36.46892716-36.46892717s-107.93388275 31.22541334-147.7610148 42.65509405A436.74338224 436.74338224 0 0 0 512.53024288-57.86906337000005z m-0.2945803 824.82225118a381.77487075 381.77487075 0 0 1-271.13085728-112.11690944 382.48186126 382.48186126 0 0 1-108.99436851-320.73802506c20.03139801-158.77828389 177.33678457-313.37353974 336.64530995-330.63589069a380.59655371 380.59655371 0 0 1 251.80645117 59.32828577 41.12328037 41.12328037 0 0 0 33.46421616 4.89001856l104.28109895-30.0470963c-11.01726911 38.29531837-24.98033151 87.31332693-29.98817996 105.81291125a40.59303749 40.59303749 0 0 0 5.30242874 32.69831069 380.36088974 380.36088974 0 0 1 58.79804292 251.51187087c-17.49801491 159.13177915-172.03435581 316.20150175-330.57697436 336.17398342a392.43864461 392.43864461 0 0 1-49.60716778 3.12254093z m-162.31323502-412.4111249a44.18690634 44.18690634 0 1 0 0 88.37381266 44.18690634 44.18690634 0 0 0 0-88.37381266z m176.74762534 0a44.18690634 44.18690634 0 1 0 0 88.37381266 44.18690634 44.18690634 0 0 0 0-88.37381266z m176.74762535 0a44.18690634 44.18690634 0 1 0 0 88.37381266 44.18690634 44.18690634 0 0 0 0-88.37381266z"  horiz-adv-x="1024" />

    
    <glyph glyph-name="bianji5" unicode="&#60488;" d="M907.18991047 50.44971264000003a31.036883 31.036883 0 1 0 0-62.07376604H120.8750748a31.036883 31.036883 0 1 0 0 62.07376604h786.31483567z m-0.35349525 562.97653626L414.27613289 120.79526752000004l-192.01862018-19.5836369 19.65433594 192.01862019 428.29484575 428.29484576 64.26543657 64.33613562a78.33454755 78.33454755 0 0 0 108.16954671 0l64.19473754-64.33613561c14.42260622-14.28120813 22.48229795-33.79414596 22.4115989-54.08477337 0-20.36132644-7.91829362-39.59146809-22.4115989-54.01407431z m-615.08173622-442.71745196l94.24183384 9.61507081 390.75365012 390.75365012-84.62676302 84.62676302L301.44044887 264.95063075999997l-9.61507081-94.24183382z m496.80222533 575.41956907a14.28120813 14.28120813 0 0 1-10.18066321-4.241943l-42.34873104-42.27803199 84.62676302-84.62676302 42.27803198 42.27803198a14.42260622 14.42260622 0 0 1 0 20.36132644l-64.19473753 64.33613563a14.35190718 14.35190718 0 0 1-10.18066322 4.17124396z"  horiz-adv-x="1024" />

    
    <glyph glyph-name="shanchu7" unicode="&#60489;" d="M786.04837141 657.89754678a385.58319292 385.58319292 0 0 0 113.49554184-274.19919606 385.5077806 385.5077806 0 0 0-113.49554184-274.19919607 385.58319292 385.58319292 0 0 0-274.19919606-113.49554181 385.5077806 385.5077806 0 0 0-274.19919606 113.49554181 385.5077806 385.5077806 0 0 0-113.49554182 274.19919607 385.58319292 385.58319292 0 0 0 113.49554182 274.19919606 385.5077806 385.5077806 0 0 0 274.19919606 113.4201295 385.5077806 385.5077806 0 0 0 274.19919606-113.49554182z m45.77527835 45.77527834a452.47392089 452.47392089 0 1 1-639.94894879-640.02436111 452.47392089 452.47392089 0 0 1 639.94894879 640.02436111zM558.30316459 381.73763039999994l161.45777742 161.45777743-45.77527834 45.77527834-161.3823651-161.45777744-161.00530353 161.00530353-45.85069065-45.92610299L466.67719561 381.73763039999994l-158.6675216-158.66752159 45.77527832-45.77527835 158.66752158 158.66752161 159.11999552-159.11999553 45.85069067 45.85069066-159.11999551 159.11999551z"  horiz-adv-x="1024" />

    
    <glyph glyph-name="shangchuan1" unicode="&#60543;" d="M655.755228 199.194947v-206.003649A44.912281 44.912281 0 0 0 610.807018-51.649123a44.912281 44.912281 0 0 0-44.948211 44.948211v205.877894l-57.990737-57.990736a44.786526 44.786526 0 0 0-63.488 0 44.786526 44.786526 0 0 0 0 63.488l132.850526 132.850526a44.912281 44.912281 0 0 0 65.374316 1.886316l134.736842-134.736842c17.569684-17.587649 17.569684-46.00814 0-63.488a44.696702 44.696702 0 0 0-31.797894-13.150316 45.145825 45.145825 0 0 0-31.797895 13.150316l-57.990737 58.008701zM880.280702 105.50793a44.912281 44.912281 0 0 0-44.948211 44.94821A44.912281 44.912281 0 0 0 880.280702 195.404351c99.058526 0 179.685053 80.626526 179.685052 179.685053 0 94.315789-73.781895 172.948211-167.90007 179.05628l-26.51621 1.580912-11.264 23.893334C809.858246 673.594386 714.284912 734.351719 610.807018 734.351719c-103.477895 0-199.051228-60.721404-243.478457-154.731789l-11.264-23.893334-26.408421-1.688701c-94.225965-6.10807-167.90007-84.740491-167.90007-179.056281 0-99.058526 80.626526-179.685053 179.685053-179.685053a44.912281 44.912281 0 0 0 44.94821-44.94821 44.912281 44.912281 0 0 0-44.94821-44.948211c-148.641684 0-269.473684 120.849965-269.473684 269.473685 0 132.742737 97.369825 244.736 225.998596 265.701052C361.130667 752.855579 481.226105 824.140351 610.807018 824.140351c129.580912 0 249.676351-71.266807 312.948771-183.36786C1052.384561 619.825404 1149.754386 507.724351 1149.754386 374.981614c0-148.533895-120.849965-269.473684-269.473684-269.473684z"  horiz-adv-x="1221" />

    
    <glyph glyph-name="dingshixiaoxi" unicode="&#60555;" d="M541.88731395 799.16802938C300.93591927 799.16802938 111.68553458 609.84907688 111.68553458 368.89768218999995c0-240.88282594 189.25038375-430.20177844 430.20177938-430.20177844 240.95139469 0 430.20177844 189.25038375 430.20177843 430.20177844 0 240.95139469-189.25038375 430.27034719-430.20177843 430.27034719z m0-774.41805657a345.17624344 345.17624344 0 0 0-344.21627812 344.21627813c0 189.25038375 154.96589438 344.14770937 344.21627813 344.14770937s344.21627813-154.89732469 344.21627718-344.21627812c0-189.25038375-154.96589438-344.14770937-344.21627718-344.14770938z m42.99274969 361.35852375V627.05989031c0 25.78193625-17.14224469 42.99275062-42.99274968 42.99275063-25.78193625 0-42.99275062-17.14224469-42.99275063-42.99275063V368.89768218999995c0-8.57112281 8.57112281-25.78193625 8.57112281-34.42162781l137.68651125-137.61794251c8.57112281-8.63969156 17.14224469-8.63969156 34.42162782-8.63969156 17.14224469 0 25.78193625 0 34.42162687 8.63969157a41.62137094 41.62137094 0 0 1 0 60.20356406L584.88006364 386.10849656zM344.06580739 799.16802938c0 8.57112281-8.63969156 17.14224469-8.63969156 25.78193624-51.5638725 42.99275062-137.6179425 42.99275062-189.25038375 0l-60.27213375-60.20356406c-42.99275062-51.63244125-42.99275062-137.68651125 0-189.3189525 8.63969156 0 17.21081344-8.63969156 25.85050594-8.63969156A438.36148687 438.36148687 0 0 0 343.99723864 799.16802938z m653.94235875-34.42162782L937.66746458 824.88139688c-51.63244125 51.63244125-129.04681969 51.63244125-180.67926188-1e-8-8.57112281-8.63969156-8.57112281-17.21081344-17.14224468-25.78193625 103.19631469-51.63244125 189.25038375-129.11538844 232.24313437-232.38027187 8.63969156 8.63969156 17.21081344 8.63969156 25.850505 17.21081344 42.99275062 43.06131937 42.99275062 129.11538844 0 180.74783062zM206.2421577 7.539159369999993l-34.42162781-34.42162781a41.62137094 41.62137094 0 0 1 0-60.20356406c8.63969156-8.63969156 17.21081344-8.63969156 34.42162782-8.63969156s25.850505 0 34.42162781 8.63969156l34.42162781 34.42162781a41.62137094 41.62137094 0 0 1 0 60.20356407c-17.14224469 17.21081344-51.63244125 17.21081344-68.84325562 0z m671.15317313 1e-8a41.62137094 41.62137094 0 0 1-60.27213281 0 41.62137094 41.62137094 0 0 1 0-60.20356407l34.42162781-34.42162781c8.63969156-8.63969156 17.21081344-8.63969156 34.42162781-8.63969156s25.850505 0 34.42162781 8.63969156a41.62137094 41.62137094 0 0 1 0 60.20356406l-42.99275062 34.42162782z"  horiz-adv-x="1097" />

    
    <glyph glyph-name="iconsousuo" unicode="&#60562;" d="M950.49027969-57.56508047a29.24885479 29.24885479 0 0 0-41.09839014 0l-232.49089424 229.49101143a378.66016933 378.66016933 0 0 0-237.51569706-83.17174219c-208.49183437 0-377.38521914 166.79346768-377.38521914 372.58540752C62.00007911 667.13153526 230.96846182 834 439.38529825 834s377.38521914-166.86846474 377.38521913-372.66040371a368.16058037 368.16058037 0 0 0-97.94616328-249.74021866l231.59092851-228.66604453c11.39955381-11.1745626 11.39955381-29.24885479 0-40.49841357zM439.31030117 776.62724737C262.99220732 776.62724737 120.04780537 635.4827751 120.04780537 461.33959629c0-174.06818261 142.94440107-315.28765107 319.33749287-315.28765196 176.31809385 0 319.33749287 141.21946934 319.33749288 315.28765195 0 174.14317969-143.01939815 315.28765107-319.33749288 315.28765109z"  horiz-adv-x="1026" />

    
    <glyph glyph-name="jingshi" unicode="&#60563;" d="M926.61823144 559.16228115A447.18694102 447.18694102 0 0 0 961.9994375 384a448.53693925 448.53693925 0 0 0-131.79358565-318.20585185A448.42443925 448.42443925 0 0 0 512-65.9994375a448.42443925 448.42443925 0 0 0-318.20585185 131.79358565A448.31193925 448.31193925 0 0 0 62.0005625 384a448.53693925 448.53693925 0 0 0 131.79358565 318.20585185A448.70568925 448.70568925 0 0 0 512 833.9994375a448.59318925 448.59318925 0 0 0 318.20585185-131.79358565 448.48068925 448.48068925 0 0 0 96.41237959-143.0435707zM548.4499543 310.70634141000005L568.24992969 560.1185302700001C568.24992969 585.48724776 539.78746484 608.99971875 513.34999825 608.99971875S455.75007031 586.4997468700001 455.75007031 561.13102852l22.10622276-252.7871836c5.51249297-26.9999666 17.99997715-33.86245781 34.03120693-36.8437043 0 0-12.54373418 0 0 0 16.93122891 0 34.08745781 12.48748418 36.5624543 39.20620079zM512 215.25021094a56.24992969 56.24992969 0 1 1 0-112.49985938 56.24992969 56.24992969 0 0 1 0 112.49985938z"  horiz-adv-x="1024" />

    
    <glyph glyph-name="chenggong" unicode="&#60564;" d="M512 834c248.7375 0 450-201.2625 450-450 0-248.7375-201.2625-450-450-450-248.7375 0-450 201.2625-450 450 0 248.7375 201.2625 450 450 450zM433.30625 258.5625L305.16875 369.54375000000005c-5.56875 4.33125-13.89375 4.33125-18.1125-1.4625l-20.86875-21.65625a14.2875 14.2875 0 0 1 0-20.19375l157.3875-162.95625a13.1625 13.1625 0 0 1 19.4625 0l314.775 325.96875a14.2875 14.2875 0 0 1 0 20.19375l-19.4625 20.19375a13.1625 13.1625 0 0 1-19.51875 0L433.25 258.5625z"  horiz-adv-x="1024" />

    
    <glyph glyph-name="guanbi" unicode="&#60565;" d="M635.46666636 384l367.76000062-367.68a60 60 0 0 0-84.80000062-84.79999969L550.66666667 299.03999999999996l-367.68-367.68a60 60 0 0 0-84.79999969 84.79999969L465.70666667 384 98.10666636 751.6800000000001a60 60 0 0 0 84.80000062 84.79999969L550.66666667 468.96 918.34666667 836.56000031a60 60 0 0 0 84.79999969-84.80000062L635.62666667 384z"  horiz-adv-x="1109" />

    
    <glyph glyph-name="shuxingjiegoushouqi" unicode="&#60566;" d="M739.07129116 334.51908182l-282.67159754-212.00370126a70.66789638 70.66789638 0 0 0-113.06864603 56.53431748l0 424.00740194a70.66789638 70.66789638 0 0 0 113.06864603 56.53431702l282.67159754-212.00370101a70.66789638 70.66789638 0 0 0 0-113.06863417z"  horiz-adv-x="1024" />

    
    <glyph glyph-name="shuxingjiegouxiala" unicode="&#60567;" d="M526.628571 193.901714l-219.428571 292.571429a73.142857 73.142857 0 0 0 58.514286 117.028571L804.571429 603.501714a73.142857 73.142857 0 0 0 58.514285-117.028571l-219.428571-292.571429a73.142857 73.142857 0 0 0-117.028572 0z"  horiz-adv-x="1170" />

    
    <glyph glyph-name="weixuan" unicode="&#60568;" d="M62 834m168.75 0l562.5 0q168.75 0 168.75-168.75l0-562.5q0-168.75-168.75-168.75l-562.5 0q-168.75 0-168.75 168.75l0 562.5q0 168.75 168.75 168.75ZM118.25 777.75m112.5 0l562.5 0q112.5 0 112.5-112.5l0-562.5q0-112.5-112.5-112.5l-562.5 0q-112.5 0-112.5 112.5l0 562.5q0 112.5 112.5 112.5Z"  horiz-adv-x="1024" />

    
    <glyph glyph-name="xingongnengicon" unicode="&#60828;" d="M28.444444 810.666667a28.444444 28.444444 0 0 0-28.444444 28.444444V867.555556a28.444444 28.444444 0 0 0 28.444444 28.444444h1109.333334a28.444444 28.444444 0 0 0 28.444444-28.444444v-28.444445a28.444444 28.444444 0 0 0-28.444444-28.444444h-142.222222v-900.152889a28.444444 28.444444 0 0 0-36.807112-27.192889L583.111111-1.166222 207.473778-116.679111A28.444444 28.444444 0 0 0 170.666667-89.486222V810.666667H28.444444z m553.073778-262.798223l-36.323555 12.743112c-3.84-14.336-8.163556-28.16-12.970667-41.728l-4.977778-13.454223H486.684444a408.206222 408.206222 0 0 1-16.213333 46.876445l-3.413333 7.879111-35.470222-13.169778c5.432889-9.528889 10.410667-19.797333 14.904888-30.606222l4.323556-10.979556h-45.312v-36.949333h82.915556v-38.200889h-76.060445v-36.522667h76.060445v-104.419555c0-8.504889-5.12-12.743111-15.388445-12.743111a65.706667 65.706667 0 0 0-13.226667 1.422222l-4.721777 1.137778 8.96-37.376h22.215111c26.567111 0 40.618667 11.292444 42.154666 33.848889l0.170667 4.352v113.777777h71.765333v36.522667h-71.765333V468.48h79.047111V505.457778h-43.605333c5.12 10.183111 9.984 21.191111 14.364444 33.223111l3.157334 9.216-36.323556 12.743111z m204.657778 48.412445l-19.626667 35.640889c-38.4-14.791111-81.066667-23.495111-128.426666-25.514667l-13.027556-0.369778v-183.409777c-1.592889-59.534222-13.425778-106.666667-35.128889-141.738667l-4.181333-6.428445 28.643555-30.549333c29.468444 42.097778 45.966222 97.450667 49.493334 166.4l0.483555 12.316445v42.894222h51.285334v-222.464h39.736889v222.435555H796.444444v38.656h-132.039111v68.778667c39.509333 2.645333 75.946667 8.96 109.397334 19.285333l12.373333 4.067556-19.626667 35.640889z m-311.466667-228.835556l-36.750222 7.651556a318.919111 318.919111 0 0 0-33.678222-88.234667l-6.058667-10.268444 33.336889-21.219556c16.696889 28.302222 29.696 60.956444 39.594667 97.991111l3.555555 14.08-36.750222 7.651556z m96.995556 10.609778l-33.336889-8.903111c8.192-20.394667 15.303111-41.045333 21.333333-61.952l4.295111-15.758222 34.190223 12.743111a756.764444 756.764444 0 0 1-26.481778 73.870222zM510.179556 640l-41.870223-6.798222c4.807111-7.310222 9.386667-15.132444 13.511111-23.210667l3.982223-8.192h-76.032v-37.376h195.242666v37.376h-79.047111c-5.12 13.994667-10.666667 26.737778-15.786666 38.200889z"  horiz-adv-x="1166" />

    
    <glyph glyph-name="zuo" unicode="&#60832;" d="M870.686034 742.686034C774.470078 838.901989 646.510123 891.886838 510.392492 891.886838 374.27486 891.886838 246.366391 838.907709 150.09895 742.686034 53.820067 646.470078 0.886704 518.504402 0.886704 382.443978s52.99057-264.026101 149.206525-360.293542c96.210235-96.267441 224.175911-149.200804 360.287821-149.200805 136.117631 0 264.031821 52.984849 360.299263 149.195084 96.267441 96.221676 149.200804 224.181631 149.200804 360.299263 0 136.117631-52.984849 264.026101-149.200804 360.242056zM510.392492-73.476291c-251.366257 0-455.868782 204.496804-455.868783 455.868783 0 251.366257 204.496804 455.863061 455.868783 455.863061 251.366257 0 455.863061-204.496804 455.863061-455.863061S761.764469-73.482011 510.398212-73.482011zM597.295196 144.063642a22.196201 22.196201 0 0 1 15.646033 6.447196 22.110391 22.110391 0 0 1 0 31.246302l-205.30914 205.31486 205.314861 205.303419a22.110391 22.110391 0 0 1 0 31.246302 22.110391 22.110391 0 0 1-31.246302 0L360.745475 402.666547a22.110391 22.110391 0 0 1 0-31.240581l220.955173-220.955173a22.007419 22.007419 0 0 1 15.640313-6.452916l-0.040045 0.045765z"  horiz-adv-x="1024" />

    
    <glyph glyph-name="you" unicode="&#60833;" d="M869.793609 742.686034C773.577654 838.901989 645.611978 891.886838 509.494346 891.886838 373.388156 891.886838 245.473966 838.907709 149.212246 742.686034 52.927642 646.470078 0 518.504402 0 382.443978s52.984849-264.026101 149.200804-360.293542c96.215955-96.267441 224.181631-149.200804 360.299263-149.200805 136.111911 0 264.026101 52.984849 360.287821 149.195084 96.273162 96.221676 149.206525 224.181631 149.206525 360.299263 0 136.117631-52.984849 264.026101-149.200804 360.242056zM509.494346-73.476291c-251.366257 0-455.863061 204.496804-455.863061 455.868783 0 251.366257 204.496804 455.863061 455.868782 455.863061 251.366257 0 455.863061-204.496804 455.863061-455.863061s-204.496804-455.868782-455.868782-455.868783zM426.979397 144.063642a22.196201 22.196201 0 0 0-15.640313 6.447196 22.110391 22.110391 0 0 0 0 31.246302l205.309139 205.31486-205.31486 205.303419a22.110391 22.110391 0 0 0 0 31.246302 22.110391 22.110391 0 0 0 31.246302 0l220.955173-220.955174a22.110391 22.110391 0 0 0 0-31.240581l-220.955173-220.955173a22.007419 22.007419 0 0 0-15.640313-6.452916l0.040045 0.045765z"  horiz-adv-x="1024" />

    
    <glyph glyph-name="guanbi1" unicode="&#60848;" d="M122.092308 829.597538l389.907692-389.907692 389.907692 389.907692 55.689846-55.689846-389.907692-389.907692 389.907692-389.907692-55.689846-55.689846-389.907692 389.907692-389.907692-389.907692-55.689846 55.689846 389.907692 389.907692-389.907692 389.907692 55.689846 55.689846z"  horiz-adv-x="1024" />

    
    <glyph glyph-name="guanbi-mian" unicode="&#60849;" d="M511.936008 896a511.936008 511.936008 0 1 1 0.127984-1024A511.936008 511.936008 0 0 1 511.936008 896z m241.313836-701.608299a36.539433 36.539433 0 1 0-51.705537-51.705537L511.936008 332.35845500000005l-189.608299-189.608299a36.539433 36.539433 0 1 0-51.705537 51.705537L460.230471 384.063992 270.622172 573.672291a36.539433 36.539433 0 0 0 51.705537 51.705537L511.936008 435.769529l189.608299 189.608299a36.539433 36.539433 0 0 0 51.705537-51.705537L563.641545 384.063992l189.608299-189.672291z"  horiz-adv-x="1024" />

    
    <glyph glyph-name="shanchu" unicode="&#60938;" d="M625.41714313 534.78857156c20.98285687 0 38.12571469-17.00571469 38.12571374-38.05714312v-380.77714313a38.12571469 38.12571469 0 0 0-76.18285687 0V496.8c0 20.98285687 16.93714313 37.98857156 38.05714313 37.98857156z m-228.54857157 0c20.98285687 0 38.12571469-17.00571469 38.12571375-38.05714312v-380.77714313a38.12571469 38.12571469 0 0 0-76.18285687 0V496.8c0 20.98285687 17.14285687 37.98857156 38.05714312 37.98857156zM244.57142844 610.97142844v-533.14285688c0-42.03428531 34.14857156-76.11428531 76.18285687-76.11428625h380.77714313c42.10285687 0 76.18285687 34.08 76.18285687 76.11428625V610.97142844H244.57142844z m190.49142843 152.36571469c-42.10285687 0-76.18285687-34.14857156-76.18285687-76.18285782h304.59428531c0 42.03428531-34.14857156 76.11428531-76.18285687 76.11428625h-152.22857157zM168.32 610.97142844H92.20571469a38.12571469 38.12571469 0 0 0 0 76.11428625h190.42285687v38.12571375c0 63.08571469 51.08571469 114.30857156 114.24 114.30857156h228.54857157c63.08571469 0 114.30857156-51.15428531 114.30857156-114.30857156v-38.05714313h190.42285687a38.12571469 38.12571469 0 0 0 0-76.18285687h-76.18285687v-533.14285688a152.36571469 152.36571469 0 0 0-152.36571469-152.36571469H320.68571469a152.36571469 152.36571469 0 0 0-152.36571469 152.36571469V610.97142844z"  horiz-adv-x="1024" />

    
    <glyph glyph-name="shoufeiguanli" unicode="&#60945;" d="M169.28 832.8h822.85714312a102.85714313 102.85714313 0 0 0 102.85714219-102.85714313v-685.71428531a102.85714313 102.85714313 0 0 0-102.85714219-102.85714312h-822.85714312a102.85714313 102.85714313 0 0 0-102.85714313 102.85714312v685.71428531a102.85714313 102.85714313 0 0 0 102.85714313 102.85714313z m0-68.57142844a34.28571469 34.28571469 0 0 1-34.28571469-34.28571469v-685.71428531a34.28571469 34.28571469 0 0 1 34.28571469-34.28571469h822.85714312a34.28571469 34.28571469 0 0 1 34.28571375 34.28571469v685.71428531a34.28571469 34.28571469 0 0 1-34.28571375 34.28571469h-822.85714312zM451.65714313 224.36571469a31.95428531 31.95428531 0 0 1 0-63.84h95.72571375v-63.77142938a31.95428531 31.95428531 0 0 1 63.77142843 0v63.77142938h95.72571469a31.95428531 31.95428531 0 0 1 0 63.77142843H611.22285688v63.77142844h95.65714312a31.95428531 31.95428531 0 0 1 0 63.90857157H627.47428531l-1.02857062 1.02857156 102.10285687 102.17142843a33.39428531 33.39428531 0 0 1-47.17714312 47.10857157l-102.10285688-102.17142938-102.10285687 102.17142938a33.39428531 33.39428531 0 0 1-47.10857156-47.17714313l102.10285687-102.10285687-1.09714312-1.02857157H451.65714313a31.95428531 31.95428531 0 0 1 0-63.84h95.72571375v-63.77142843H451.65714313zM100.57142844 658.28571469h960v-68.57142938H100.57142844z"  horiz-adv-x="1170" />

    
    <glyph glyph-name="canzhaoyingshoudan" unicode="&#60946;" d="M768.00000031 64.00000031000002v-32.00000062a31.99999969 31.99999969 0 0 0-32.00000062-31.99999969H159.99999969a31.99999969 31.99999969 0 0 0-31.99999969 31.99999969V607.99999969a31.99999969 31.99999969 0 0 0 31.99999969 32.00000062h32.00000062v63.99999938H159.99999969A96 96 0 0 1 63.99999969 607.99999969v-576A96 96 0 0 1 159.99999969-64.00000031000002h576a96 96 0 0 1 96 96v32.00000062h-63.99999938zM288.00000031 832.00000031h576A96 96 0 0 0 960.00000031 736.00000031v-576a96 96 0 0 0-96-96H288.00000031A96 96 0 0 0 192.00000031 160.00000031000002V736.00000031A96 96 0 0 0 288.00000031 832.00000031z m0-64.00000031a31.99999969 31.99999969 0 0 1-32.00000062-31.99999969v-576a31.99999969 31.99999969 0 0 1 32.00000062-32.00000062h576a31.99999969 31.99999969 0 0 1 31.99999969 32.00000062V736.00000031a31.99999969 31.99999969 0 0 1-31.99999969 31.99999969H288.00000031zM447.99999969 480h256.00000031a31.99999969 31.99999969 0 1 0 0-64.00000031h-256.00000031a31.99999969 31.99999969 0 0 0 0 64.00000031zM608 576v-256.00000031a31.99999969 31.99999969 0 0 0-64.00000031 0v256.00000031a31.99999969 31.99999969 0 0 0 64.00000031 0z"  horiz-adv-x="1024" />

    
    <glyph glyph-name="charuhang" unicode="&#60948;" d="M550.80000031-96a480 480 0 1 0 0 960 480 480 0 0 0 0-960z m0 880.00000031a400.00000031 400.00000031 0 1 1 0-800.00000062 400.00000031 400.00000031 0 0 1 0 800.00000062zM760.80000031 349.03999968999995H585.84000031v-175.03999969a34.96000031 34.96000031 0 0 0-70.00000031 0V349.03999968999995H340.80000031a35.04 35.04 0 0 0 0 69.92000062h175.03999969V594a34.96000031 34.96000031 0 0 0 70.00000031 0v-175.03999969H760.80000031a35.04 35.04 0 0 0 0-69.92000062z"  horiz-adv-x="1109" />

    
    <glyph glyph-name="fanhuishoukuanjihuabiao" unicode="&#60949;" d="M737.87878812 713.97272695H356.03333333V834L83.33333333 670.36363652l272.7-163.63636347V626.7545452100001H737.87878812c163.63636347 0 283.66363652-109.14545479 283.66363652-283.66363652S901.51515159 59.42727305000005 737.87878812 59.42727305000005H574.24242464c-21.84545479 0-43.60909131-21.76363652-43.60909131-43.60909131s21.76363652-43.60909131 43.60909131-43.60909043h163.63636348c207.24545479 0 370.88181826 147.27272695 370.88181826 370.88181738 0 223.60909131-163.63636347 370.88181826-370.88181826 370.88181826z"  horiz-adv-x="1210" />

    
    <glyph glyph-name="hetongguanli" unicode="&#60950;" d="M342.35 525.8625h335.925a28.0125 28.0125 0 0 1 0 56.025H342.35a28.0125 28.0125 0 1 1 0-56.025z m252 112.05a28.0125 28.0125 0 0 1 0 56.025h-140.0625a28.0125 28.0125 0 0 1 0-56.025h140.0625zM678.21875 413.8125a28.0125 28.0125 0 0 1 0 56.025H342.35a28.0125 28.0125 0 1 1 0-56.025h335.925z m-55.9125-363.99375a140.00625 140.00625 0 1 1-0.1125 279.95625 140.00625 140.00625 0 0 1 0.1125-279.95625z m-0.1125 55.96875a83.98125 83.98125 0 1 0 0.1125 167.9625 83.98125 83.98125 0 0 0-0.1125-167.9625z m-223.875 27.9a28.0125 28.0125 0 0 1 0 56.025h-56.025a28.0125 28.0125 0 0 1 0-56.025h55.96875z m195.91875 28.0125h56.025v56.025h-56.025v-56.025zM818.28125 834H202.34375A56.08125 56.08125 0 0 1 146.375 777.975V-6.375c0-30.9375 25.0875-55.96875 55.96875-56.025h615.9375c30.9375 0 55.96875 25.0875 55.96875 56.025V777.975A56.08125 56.08125 0 0 1 818.28125 834z m0-840.375H202.34375V777.975h615.9375V-6.375z"  horiz-adv-x="1024" />

    
    <glyph glyph-name="shanchuhang" unicode="&#60951;" d="M193.80205039 65.80204687000003a449.96175352 449.96175352 0 1 0 636.39590625 636.39590625 449.96175352 449.96175352 0 0 0-636.39590625-636.39590625z m583.37541299 583.375413a374.96812763 374.96812763 0 1 1-530.35491973-530.27992618 374.96812763 374.96812763 0 0 1 530.35491973 530.20493262z m-149.23731533-427.53865958L512.00000352 337.50395214 395.98486455 221.63880028999995a32.77221416 32.77221416 0 0 0-46.42105429 46.34606075L465.57894922 384 349.56381026 500.01513896a32.84720771 32.84720771 0 0 0 46.49604784 46.4210543L512.00000352 430.4210543l116.01513809 116.01513896a32.77221416 32.77221416 0 0 0 46.42105429-46.49604785L558.42105781 384l115.94014453-116.01513896a32.84720771 32.84720771 0 0 0-46.34606073-46.34606075z"  horiz-adv-x="1024" />

    
    <glyph glyph-name="jinrushoukuanjihuamingxibiao" unicode="&#60952;" d="M512 834a450 450 0 1 1 0-900 450 450 0 0 1 0 900z m0-837A387 387 0 1 0 512 771a387 387 0 0 0 0-774zM724.74615372 384a26.30769258 26.30769258 0 0 0-1e-8-12.18461573 21.73846113 21.73846113 0 0 0-5.81538428-7.7538454L578.87692315 225.32307685a31.84615372 31.84615372 0 0 0-45 44.93076944l81 81.55384629H331.58461572a32.12307685 32.12307685 0 1 0 1e-8 64.24615371h283.29230742L532.00769258 497.53846113a31.84615372 31.84615372 0 0 0 45 45.06923145l136.17692314-135.5538463a19.24615372 19.24615372 0 0 0 5.74615371-8.30769256 26.30769258 26.30769258 0 0 0 5.81538428-14.81538429z"  horiz-adv-x="1024" />

    


  </font>
</defs>
</svg>
